<?xml version="1.0" encoding="UTF-8"?>
<!DOCTYPE svg PUBLIC "-//W3C//DTD SVG 1.1//EN" "http://www.w3.org/Graphics/SVG/1.1/DTD/svg11.dtd">
<!-- Creator: CorelDRAW 2018 (64-Bit) -->
<svg xmlns="http://www.w3.org/2000/svg" xml:space="preserve" width="14.124mm" height="12.682mm" version="1.1" style="shape-rendering:geometricPrecision; text-rendering:geometricPrecision; image-rendering:optimizeQuality; fill-rule:evenodd; clip-rule:evenodd"
viewBox="0 0 1412.4 1268.2"
 xmlns:xlink="http://www.w3.org/1999/xlink">
 <defs>
  <style type="text/css">
   <![CDATA[
    .str1 {stroke:#2B2A29;stroke-width:75;stroke-miterlimit:22.9256}
    .str0 {stroke:#2B2A29;stroke-width:50;stroke-miterlimit:22.9256}
    .str2 {stroke:#2B2A29;stroke-width:150;stroke-miterlimit:22.9256}
    .str3 {stroke:#2B2A29;stroke-width:20;stroke-miterlimit:22.9256}
    .fil0 {fill:none}
    .fil1 {fill:#FF6600}
   ]]>
  </style>
 </defs>
 <g id="Слой_x0020_1">
  <metadata id="CorelCorpID_0Corel-Layer"/>
  <g id="_748646007408">
   <path class="fil0 str0" d="M671.19 740.45c199.71,-16.82 277.15,-138 232.31,-363.54"/>
   <path class="fil0 str1" d="M662.14 925.99c338.85,-62.48 471.09,-287.75 396.72,-675.78"/>
   <path class="fil0 str2" d="M662.14 1168.85c557.12,-161.73 762.77,-502.64 616.96,-1022.73"/>
   <polygon class="fil1 str3" points="604.78,620.35 1153.84,635.43 1217.19,526.82 766.18,391.06 "/>
   <polygon class="fil1 str3" points="410.74,685.52 265.92,649.32 235.75,720.22 345.87,822.79 "/>
   <polygon class="fil1 str3" points="517.74,730.57 611.27,784.88 578.08,851.25 422.71,855.77 "/>
   <polygon class="fil1 str3" points="482.63,582.06 36.14,239.65 90.44,112.94 619.91,339.2 "/>
   <path class="fil1 str3" d="M458.51 603.94c43.23,-80.2 106.09,-195.85 156.13,-282.58 50.02,-86.74 87.23,-144.56 114.88,-182.77 27.65,-38.22 45.76,-56.82 65.86,-74.42 20.12,-17.6 42.25,-34.2 60.85,-43.24 18.61,-9.05 33.68,-10.57 42.99,-7.29 9.3,3.26 12.82,11.31 13.83,27.65 1,16.34 -0.51,40.98 -7.05,70.14 -6.54,29.16 -18.09,62.85 -44.75,112.63 -26.64,49.78 -68.37,115.65 -111.62,180.01 -43.24,64.35 -87.99,127.21 -127.46,182.02 -39.47,54.8 -73.67,101.57 -102.33,139.78 -28.66,38.21 -51.78,67.88 -67.62,87.99 -15.84,20.11 -24.39,30.67 -34.94,36.45 -10.57,5.78 -23.14,6.79 -34.19,5.28 -11.07,-1.51 -20.63,-5.53 -26.66,-11.07 -6.03,-5.52 -8.54,-12.56 -6.03,-24.62 2.51,-12.07 10.06,-29.17 25.65,-60.09 15.59,-30.92 39.21,-75.67 82.46,-155.87z"/>
  </g>
 </g>
</svg>
