<?xml version="1.0" encoding="UTF-8"?>
<!DOCTYPE svg PUBLIC "-//W3C//DTD SVG 1.1//EN" "http://www.w3.org/Graphics/SVG/1.1/DTD/svg11.dtd">
<!-- Creator: CorelDRAW 2018 (64-Bit) -->
<svg xmlns="http://www.w3.org/2000/svg" xml:space="preserve" width="113mm" height="83mm" version="1.1" style="shape-rendering:geometricPrecision; text-rendering:geometricPrecision; image-rendering:optimizeQuality; fill-rule:evenodd; clip-rule:evenodd"
viewBox="0 0 11300 8300"
 xmlns:xlink="http://www.w3.org/1999/xlink">
 <defs>
  <style type="text/css">
   <![CDATA[
    .str0 {stroke:#63B557;stroke-width:300;stroke-miterlimit:22.9256}
    .fil1 {fill:none}
    .fil0 {fill:#64B559;fill-rule:nonzero}
   ]]>
  </style>
    <mask id="id0">
  <linearGradient id="id1" gradientUnits="userSpaceOnUse" x1="-5099.42" y1="779.49" x2="-5321.38" y2="644.31">
   <stop offset="0" style="stop-opacity:1; stop-color:white"/>
   <stop offset="0.980392" style="stop-opacity:-82.3255; stop-color:white"/>
   <stop offset="1" style="stop-opacity:0; stop-color:white"/>
  </linearGradient>
     <rect style="fill:url(#id1)" x="1369.88" y="-13.77" width="8560.25" height="8327.55"/>
    </mask>
 </defs>
 <g id="Слой_x0020_1">
  <metadata id="CorelCorpID_0Corel-Layer"/>
  <g id="_284956419696">
   <path class="fil0" d="M76.49 4061.93l0.28 0 1.17 0.59c242.98,2.14 485.93,4.29 636.05,-19.2 96.65,-15.12 158.03,-43.24 206.46,-65.42 26.1,-11.95 49.58,-22.71 71.96,-30.65 57.24,-20.31 114.45,-28.14 174.56,-17.16 62.13,11.33 119.64,40.74 173.11,94.21l-0.29 0.29c51.19,51.26 93.59,118.14 134.81,183.15 22.47,35.42 44.58,70.29 60.35,91.52 17.26,23.24 31.46,38.71 43.25,45.94 2.22,1.36 4.85,1.94 8.05,1.74l0.59 0c10.54,-0.65 24.11,-5.88 40.49,-19.45 21.45,-17.77 43.94,-46.45 66.22,-90.34 42.83,-84.35 82.62,-218.16 119.6,-342.5 19.95,-67.13 39.18,-131.79 57.4,-184.97 31.29,-91.38 63.47,-161.96 98.77,-217.15 43.16,-67.48 91.24,-112.57 146.9,-142.25 71.18,-37.96 152.17,-49.74 234.18,-20.09 63.79,23.07 123.23,70.28 171.12,148.97 39.06,64.17 71.24,152.25 98.06,262.43 24.45,100.42 45.24,221.98 63.56,362.81 17.14,131.75 31.84,277.01 46.19,418.83 15.67,154.86 30.93,305.58 48.63,428.28 15.15,105.14 31.27,181.32 49.78,235.43 12.41,36.31 23.3,56.83 33.87,66.22 1.03,0.91 -1.07,1.25 -0.09,1.28 1.26,0.04 2.8,-0.58 4.28,-1.7 3.45,-2.62 7.79,-11.55 15.1,-34.48 14.78,-46.37 27.64,-121.18 40.96,-240.01 26.58,-237.29 51.41,-630.6 74.3,-993.46l14.52 -229.26c20.41,-321.28 38.26,-602.11 47.3,-804.61 2.72,-61 4.46,-106.86 6.07,-149.56 6.52,-172.66 11.27,-298.4 33.75,-414.52 15.06,-77.83 37.9,-150.41 65.05,-212.29 31.16,-71.01 69.59,-130.56 110.76,-171.82l-0.29 -0.29c55.86,-55.86 118.9,-82.4 185.19,-83.32 70.68,-0.95 134.32,27.58 187.86,81.12 41.43,41.43 77.78,95.92 108.75,230.02 23.75,102.83 47.89,269.31 75.14,552.09 27.26,282.85 57.09,671.31 85.19,1070.97 27.86,396.33 55.06,818.42 76.35,1159 13.95,223.38 25.24,409.56 34.78,567.39 18.62,307.72 30.57,504.99 44.59,674.85 9.72,117.83 19.82,211.24 30.8,284.7 8.21,54.97 16.69,98.1 25.69,131.5 4.06,-23.93 8.53,-60.22 14.03,-117.27 14.02,-145.35 28.75,-396.68 49.59,-846.5 19.42,-419.21 43.88,-1003.83 67.76,-1602.78 28.18,-706.48 55.64,-1431.8 73.35,-1932.64 7.28,-206.02 12.45,-359.07 16.79,-487.5 17.81,-527.82 22.27,-659.34 45.67,-768.59 16.6,-77.51 42.42,-142.18 73.53,-192.14 43.2,-69.42 99.55,-115.37 161.75,-135.27l0.58 0 14.25 -4.49c71.72,-17.93 142.72,-3.9 206.49,52.6 41.99,37.21 78.19,94.07 104,174.69l0 0.58c5.87,18.38 10.4,33.78 13.41,45.83 19.86,79.46 33.18,182.59 47.09,377.73 12.71,178.27 27.23,457.01 49.61,892.32l48.79 951.89c39.85,778.71 86.15,1682.98 120.99,2350.99 25.1,481.54 44.32,840.62 61.74,1123.31 16.91,274.57 31.63,465.89 47.93,614.74 9.2,84.09 18.78,153.78 28.61,211.48 3.65,-44.02 7.04,-98.6 10.49,-168.78 7.32,-149.26 14.46,-356.58 24.25,-666.57 11.29,-357.89 26.1,-849.35 40.7,-1379.55 11.36,-412.43 22.61,-847.07 32.06,-1260.11 11.62,-507.87 20.73,-987.44 28.67,-1406.45 7.3,-384.56 13.64,-718.74 19.84,-968.78 6.77,-273.48 13.42,-456.64 22.04,-581.36 9.58,-138.36 22.5,-221.86 41.14,-285.74 24.57,-84.29 61.29,-139.59 102.78,-175.15 57.86,-49.62 119.74,-61.62 177.26,-55.56 61.56,6.46 117.02,30.62 165.39,99.08 28.51,40.36 53.11,99.39 73.33,188.92 16.76,74.24 32.07,174.66 47.85,327.64 15.59,151.14 31.77,351.87 50.46,627.87 28.28,417.55 64.21,1037.37 101.64,1683.28l32.86 565.23c23.65,404.33 47.76,807.04 71.66,1187.52 22.72,361.69 44.7,691.37 65.04,963.7 19.81,265.38 37.28,463.82 54.27,614.01 16.57,146.59 32.72,247.97 50.26,322.26l0.13 0.54c15.3,-63.73 28.29,-148.89 39.45,-264.5 13.77,-142.56 24.61,-328.79 33.32,-573.85 10.47,-294.54 17.75,-665.27 25.55,-1063.11 5.53,-282.03 11.34,-577.6 18.55,-864.39 13.2,-524.67 31,-1024.13 45.59,-1433.94 5.34,-150.07 10.28,-288.42 13.94,-397.26l6.03 -183.66c11.38,-351.57 18.01,-556.45 42.03,-694.54 16.6,-95.47 42.51,-165.13 73.67,-216.41 41.5,-68.31 92.05,-106.37 145.17,-127.15 67.26,-26.31 137.59,-26.81 209.04,16.68 50.76,30.88 96.45,84.53 133.08,170.01 27.71,64.67 52.66,151.94 74.45,273.93 20.52,114.82 39.29,264.95 56.32,462.49 25.14,291.54 47.22,709.04 69.45,1129.46 5.79,109.47 11.52,217.84 18.75,349.69 14.11,257.34 29.06,507.78 43.27,737.21 13.29,214.53 26.91,424.47 38.31,599.96 10.57,162.9 19.05,293.15 29.22,412.69 9,105.92 18.25,186.02 30.18,247.65 10.82,55.94 24.27,98.13 38.34,131.63 6.9,16.44 13.98,30.78 20.96,43.63 12.26,-40.52 23.92,-102.2 35.05,-199.39 12,-104.76 22.28,-242.72 31.12,-400.76 9.32,-166.66 17.01,-348.83 23.43,-535.03 3.94,-114.46 7.3,-224.35 10.6,-332.59 8.56,-280.85 16.8,-551.22 29.09,-737.05 9.19,-139.08 20.83,-240.51 34.27,-321.15 14.01,-84.14 29.7,-145.17 46.55,-201.72 17.1,-57.42 35.73,-111.25 56.6,-158.69 23.74,-53.96 51.34,-101.23 84.11,-138.92 39.31,-45.21 84.22,-75.08 131.01,-91.65 56.22,-19.88 113.31,-20.52 166.41,-5.36 49.15,14.05 93.75,40.97 135.04,86.66 31.67,35.06 60.28,80.8 86.73,141.03 24.11,54.92 48.06,125.55 69.49,213.04 17.98,73.44 34.3,159.68 47.47,259.54 22.23,168.61 35.02,368.75 46.1,542.28 2.43,38.18 4.81,75.22 7.99,121.95 6.33,92.98 12.76,170.78 21.19,241.25 7.9,66 17.47,123.1 30.42,177.9 13.12,55.53 29.51,108.6 47.81,153.85 11.36,28.1 22.86,52.32 34.02,71.01 13.36,-19.6 27.39,-45.61 42.02,-77.18 25.55,-55.13 52.08,-127.28 79.61,-202.15 8.13,-22.12 15.97,-43.49 42.56,-112.59 25.8,-67.09 51.2,-128.95 74.96,-181.32 23.16,-51.01 48.36,-101.36 75.52,-149.49 30.07,-53.32 60.79,-99.8 95.47,-137.02 45.16,-48.46 96.75,-83.06 159.68,-99.83 59.83,-15.96 125.1,-12.88 188.95,6.47 57.45,17.42 114.1,48.13 163.51,89.57 44.78,37.54 83.73,84.09 117.6,132.64 30.96,44.38 56.73,89.06 78.52,129l13.56 24.84 0.11 -0.06c-3.04,-5.65 3.73,6.86 4.9,9.11 19.86,36.86 35.51,65.07 44.96,70.81 3.99,2.43 12.12,4.09 23.03,4.95 17.23,1.35 36.17,-0.68 54.85,-5.93 19.79,-5.56 39.79,-14.73 58.15,-25.42 20.46,-11.91 38.05,-25.54 50.41,-37.9 6.68,-6.68 8.76,-8.96 10.68,-11.07 47.33,-52.02 86.02,-94.56 246.84,-117.12 67.36,-9.45 164.69,-15.32 261.05,-19.08 88.46,-3.47 183.36,-5.2 246.6,-6.34l121.27 -2.21 4.68 298.82 -121.27 2.21c-58,1.05 -145.04,2.64 -239.56,6.34 -86.64,3.38 -173.46,8.56 -231.75,16.74 -52.93,7.42 -58.99,14.08 -66.38,22.2 -7.66,8.43 -15.57,17.12 -20.06,21.61 -27.88,27.88 -67.15,58.38 -112.51,84.78 -38.34,22.32 -81.79,41.93 -127.29,54.72 -52.87,14.88 -107.79,20.49 -159.15,16.47 -55.78,-4.39 -109.46,-20.31 -155.45,-48.31 -79.64,-48.48 -114,-112.35 -157.68,-193.58 -14.09,-26.15 14.49,25.86 -12.49,-23.62 -17.89,-32.79 -38.45,-68.63 -60.94,-100.86 -19.58,-28.06 -41.29,-54.3 -64.86,-74.06 -19.4,-16.27 -39.48,-27.68 -58.05,-33.31 -11.11,-3.36 -20.23,-4.5 -26.05,-2.95 -3.22,0.86 -8.99,5.97 -16.72,14.27 -18.21,19.55 -36.04,46.95 -54.45,79.6 -19.21,34.05 -40.39,77.04 -62.64,126.05 -25.81,56.87 -48.88,112.33 -69.1,164.92l-40.2 109.07c-29.38,79.9 -57.69,156.9 -88.99,224.43 -24.93,53.79 -51.79,100.77 -81.17,139.95 -36.09,48.1 -76.61,84.41 -122.46,107.32 -61.83,30.91 -127.43,36.9 -193.9,13.45 -51.26,-18.1 -99.41,-53.87 -141.78,-109.72 -32.29,-42.56 -61.53,-97.53 -86.35,-158.91 -24.39,-60.33 -45.58,-128.28 -61.87,-197.21 -15.7,-66.42 -27.09,-133.95 -36.28,-210.7 -8.64,-72.27 -15.47,-155.47 -22.35,-256.49l-7.99 -123.11c-10.95,-171.58 -23.6,-369.46 -43.76,-522.36 -11.62,-88.13 -25.92,-163.82 -41.61,-227.9 -16.78,-68.53 -35.03,-122.68 -53.09,-163.82 -9.06,-20.64 -17.13,-36.21 -24.41,-47.41 -9.68,13.34 -19.88,32.8 -30.45,56.81 -15.49,35.21 -29.97,77.36 -43.72,123.53 -14.02,47.07 -27.01,97.41 -38.33,165.4 -11.91,71.45 -22.33,163 -30.77,290.69 -12.88,194.85 -20.84,455.61 -29.09,726.49 -3.45,113.32 -6.97,228.4 -10.6,333.77 -6.81,197.44 -14.56,383.51 -23.43,542.05 -9.35,167.15 -20.03,311.45 -32.28,418.34 -13.07,114.06 -28.92,193.41 -46.92,252.64 -21.6,71.09 -46.45,114.41 -73.35,149.71 -29.6,38.85 -63.57,69.09 -99.19,89.53l0.14 0.25c-50.58,28.91 -104.32,38.79 -157.24,28.2 -50.37,-10.05 -90.71,-36.49 -127.16,-76.32 -23.67,-25.85 -43.13,-54.17 -63.3,-86.45 -20.06,-32.1 -42.14,-69.59 -63.21,-119.76 -20.65,-49.16 -40.29,-110.62 -55.92,-191.39 -14.52,-75.05 -25.13,-164.75 -34.86,-279.31 -8.58,-100.91 -17.76,-241.89 -29.22,-418.53 -10.65,-164.04 -23.49,-362.03 -38.31,-601.14 -13.88,-224.2 -28.73,-473.19 -43.27,-738.39 -5.42,-98.8 -12.13,-225.64 -18.75,-350.85 -21.58,-408.27 -43.04,-813.72 -69.45,-1120.1 -16.04,-186.07 -33.65,-327.04 -52.82,-434.35 -12.09,-67.7 -24.27,-119.8 -36.63,-159.85 -2.82,12.06 -5.54,25.51 -8.14,40.45 -21.35,122.75 -27.68,318.17 -38.53,653.52l-6.03 183.66c-4.37,129.81 -8.97,258.86 -13.94,398.42 -14.72,413.59 -32.7,917.74 -45.59,1430.44 -7.32,290.99 -13.07,583.8 -18.55,863.21 -7.91,403.24 -15.29,779.02 -25.55,1067.79 -8.92,251.03 -20.14,442.97 -34.48,591.43 -15.05,155.91 -33.7,266.36 -56.78,347.73 -25.37,89.46 -58.1,151.81 -94.18,194.25 -67.23,79.1 -144.44,99.69 -219.23,89.94 -66.63,-8.67 -126.07,-40.65 -175.98,-114.92 -31.91,-47.46 -59.78,-115.36 -82.87,-213.2 -19.93,-84.43 -37.98,-196.98 -56.12,-357.4 -17.74,-156.8 -35.57,-358.59 -55.43,-624.57 -19.35,-259.01 -41.47,-591.92 -65.04,-967.2 -22.39,-356.48 -46.82,-765.19 -71.66,-1189.88l-32.86 -565.23c-36.7,-633.47 -71.95,-1241.41 -101.64,-1679.76 -18.78,-277.4 -34.58,-474.69 -49.3,-617.33 -3.96,-38.36 -7.83,-72.89 -11.66,-104.1 -8.78,129.44 -15.3,306.51 -21.65,562.85 -6.39,257.77 -12.65,587.22 -19.84,966.42 -8.01,422.22 -17.18,905.48 -28.67,1407.63 -9.68,423.03 -20.89,856.9 -32.06,1262.45 -14.79,537.13 -29.54,1027.15 -40.7,1380.73 -10.06,318.4 -17.27,528.93 -24.25,671.25 -7.45,151.55 -15.15,239.06 -26,306.62 -12.81,79.68 -30.43,134.78 -51.28,175.72 -27.05,53.09 -58.71,84.48 -92.73,109.99 -41.88,31.41 -90.43,54.79 -151.18,52.21l-0.59 0c-65.42,-2.81 -126.61,-32.86 -177.33,-108.96l0.14 -0.09c-28.67,-43.21 -55.88,-106.7 -79.35,-203.37 -20.6,-84.81 -40.05,-199.92 -57.26,-357.24 -16.77,-153.19 -31.85,-348.85 -49.09,-628.8 -16.75,-271.81 -36.15,-634.85 -61.74,-1125.65 -34.84,-668.01 -81.14,-1572.28 -120.99,-2350.99l-48.79 -951.89c-21.71,-422.35 -35.87,-693.77 -49.61,-886.46 -9.7,-136.16 -18.46,-220.09 -29.08,-279.65l-0.24 1.12c-18.56,86.65 -22.81,212.16 -39.81,715.87 -4.73,140.2 -10.42,308.38 -16.79,488.66 -17.94,507.11 -45.4,1233.26 -73.35,1933.82 -24.08,603.96 -48.57,1189.9 -67.76,1603.96 -21.04,454.15 -36.12,709.99 -50.75,861.72 -17.06,176.93 -37.66,235.93 -66.77,285.6 -32.71,55.8 -74.69,93.79 -119.67,117.69 -56.78,30.14 -117.49,37.64 -171.44,29.92 -56.29,-8.02 -105.9,-30.85 -150.22,-78.53 -32.94,-35.42 -59.91,-83.23 -81.31,-149.09 -17.01,-52.31 -31.64,-118.82 -44.45,-204.58 -12.17,-81.42 -23.03,-180.96 -33.14,-303.46 -12.43,-150.58 -25,-358.12 -44.59,-681.87 -9.54,-157.83 -20.83,-344.01 -34.78,-567.39 -20.6,-329.68 -47.44,-745.47 -76.35,-1156.66 -28.67,-407.84 -58.38,-796.61 -84.03,-1062.77 -25.65,-266.19 -47.84,-420.58 -69.28,-513.41 -3.5,-15.16 -6.61,-27.56 -9.42,-37.75 -5.59,10.38 -11.23,22.02 -16.83,34.78 -18.46,42.06 -34.28,92.92 -45.13,149.01 -18.81,97.17 -23.14,211.63 -29.07,368.8 -1.9,50.2 -3.96,104.4 -6.07,151.92 -9.92,222.2 -27.36,496.61 -47.3,810.47l-14.52 229.26c-23.14,366.94 -48.25,764.66 -75.46,1007.52 -15.35,136.91 -32.28,229.72 -53.86,297.43 -29.06,91.15 -67.74,142.89 -119.4,182.14 -55.69,42.33 -124.43,64.99 -194.12,62.62 -66.84,-2.27 -133.49,-26.27 -189.75,-76.28 -48.95,-43.49 -87.7,-104.6 -118.25,-193.94 -24.48,-71.55 -44.76,-165.19 -62.66,-289.35 -17.29,-119.83 -33.33,-278.32 -49.81,-441.16 -14.28,-141.13 -28.92,-285.7 -45.01,-409.45 -16.95,-130.35 -35.86,-241.46 -57.7,-331.17 -19.47,-79.98 -40.23,-139.65 -62.9,-176.89 -5.49,-9.02 -9.67,-15.19 -12.72,-18.97 -9.54,6.3 -19.96,18.09 -32.06,37.02 -21.45,33.54 -43.31,83.15 -67.13,152.71 -18.1,52.83 -35.67,111.91 -53.9,173.25 -40.83,137.3 -84.77,285.04 -139.52,392.88 -43,84.72 -92.08,144.76 -142.38,186.44 -71.53,59.26 -146.28,83.07 -213.34,87.37 -67.34,4.25 -126.49,-10.61 -182.67,-45.06 -46.63,-28.58 -87.59,-69.37 -127.63,-123.28 -27.64,-37.2 -50.23,-72.84 -73.23,-109.1 -33.28,-52.49 -67.53,-106.5 -92.92,-131.88l-0.58 0c-8.24,-8.24 -12.52,-11.95 -13.75,-12.17 -3.27,-0.59 -11.14,1.51 -22.22,5.44 -15.23,5.4 -30.45,12.38 -47.34,20.11 -64.74,29.65 -146.79,67.23 -284.98,88.86 -173.59,27.16 -428.18,24.96 -682.92,22.71l0 0.58 -0.28 0 0 -0.58 -0.89 -0.01 0.89 -113.65 0 -185.76zm4644.99 -3189.27c0.97,-0.29 1.35,-0.43 0,0zm5375.39 3204.44c4.7,8.59 5.63,10.24 5.01,9.05l-4.9 -9.11 -0.11 0.06z"/>
   <path class="fil1 str0" style="mask:url(#id0)" d="M5650.01 136.23c2281,0 4130.12,1797.03 4130.12,4013.77 0,2216.75 -1849.12,4013.78 -4130.12,4013.78 -2281.01,0 -4130.13,-1797.03 -4130.13,-4013.78 0,-2216.74 1849.12,-4013.77 4130.13,-4013.77z"/>
  </g>
 </g>
</svg>
