<?xml version="1.0" encoding="UTF-8" standalone="no"?>
<svg
   xmlns:dc="http://purl.org/dc/elements/1.1/"
   xmlns:cc="http://creativecommons.org/ns#"
   xmlns:rdf="http://www.w3.org/1999/02/22-rdf-syntax-ns#"
   xmlns:svg="http://www.w3.org/2000/svg"
   xmlns="http://www.w3.org/2000/svg"
   xmlns:sodipodi="http://sodipodi.sourceforge.net/DTD/sodipodi-0.dtd"
   xmlns:inkscape="http://www.inkscape.org/namespaces/inkscape"
   height="48"
   id="svg3007"
   version="1.1"
   width="25"
   inkscape:version="0.91 r13725"
   sodipodi:docname="car.svg">
  <metadata
     id="metadata10">
    <rdf:RDF>
      <cc:Work
         rdf:about="">
        <dc:format>image/svg+xml</dc:format>
        <dc:type
           rdf:resource="http://purl.org/dc/dcmitype/StillImage" />
        <dc:title />
      </cc:Work>
    </rdf:RDF>
  </metadata>
  <sodipodi:namedview
     pagecolor="#ffffff"
     bordercolor="#666666"
     borderopacity="1"
     objecttolerance="10"
     gridtolerance="10"
     guidetolerance="10"
     inkscape:pageopacity="0"
     inkscape:pageshadow="2"
     inkscape:window-width="1920"
     inkscape:window-height="1017"
     id="namedview8"
     showgrid="false"
     inkscape:zoom="5.6399999"
     inkscape:cx="-20.606448"
     inkscape:cy="25.087532"
     inkscape:window-x="-8"
     inkscape:window-y="-8"
     inkscape:window-maximized="1"
     inkscape:current-layer="svg3007" />
  <defs
     id="defs3009" />
  <path
     style="opacity:1;fill:#00ffff;fill-opacity:1;fill-rule:evenodd;stroke:none;stroke-width:0.685;stroke-linecap:butt;stroke-miterlimit:4;stroke-dasharray:none;stroke-opacity:1"
     d=""
     id="path4174"
     inkscape:connector-curvature="0" />
  <path
     style="opacity:1;fill:#00ffff;fill-opacity:1;fill-rule:evenodd;stroke:none;stroke-width:0.685;stroke-linecap:butt;stroke-miterlimit:4;stroke-dasharray:none;stroke-opacity:1"
     d=""
     id="path4176"
     inkscape:connector-curvature="0" />
  <path
     style="opacity:1;fill:#00ffff;fill-opacity:1;fill-rule:evenodd;stroke:none;stroke-width:0.685;stroke-linecap:butt;stroke-miterlimit:4;stroke-dasharray:none;stroke-opacity:1"
     d=""
     id="path4180"
     inkscape:connector-curvature="0" />
  <path
     style="opacity:1;fill:#806600;fill-opacity:1;fill-rule:evenodd;stroke:none;stroke-width:0.685;stroke-linecap:butt;stroke-miterlimit:4;stroke-dasharray:none;stroke-opacity:1"
     d="m 19.889472,26.514127 c 0.111205,-1.828484 0.499249,-5.240337 0.693711,-6.099391 0.08282,-0.365863 0.299374,-0.615838 0.843911,-0.97415 l 0.732503,-0.481997 0,1.627552 c 0,0.895154 -0.04625,2.701832 -0.102783,4.014838 -0.115508,2.682977 -0.05393,2.54587 -1.466493,3.265422 l -0.808131,0.41166 0.107273,-1.763934 z"
     id="path4158"
     inkscape:connector-curvature="0" />
  <g
     id="layer1"
     transform="matrix(0,0.11042883,-0.11365645,0,102.99881,-4.2697662)"
     style="fill:#ffcc00;fill-opacity:1;stroke:#000000;stroke-opacity:1;stroke-width:6.11437812;stroke-miterlimit:4;stroke-dasharray:none;opacity:1">
    <g
       id="g4295"
       style="fill:#ffcc00;fill-opacity:1;stroke:#000000;stroke-opacity:1;stroke-width:6.11437812;stroke-miterlimit:4;stroke-dasharray:none">
      <path
         d=""
         id="path4028"
         style="color:#000000;display:inline;overflow:visible;visibility:visible;fill:#ffcc00;fill-opacity:1;fill-rule:nonzero;stroke:#000000;stroke-width:6.11437812;marker:none;enable-background:accumulate;stroke-opacity:1;stroke-miterlimit:4;stroke-dasharray:none"
         transform="translate(0,540.36218)"
         inkscape:connector-curvature="0" />
      <path
         d="m 217.13642,686.49653 c -0.0357,6e-4 -0.14981,0.0181 -0.24,0.02 -0.87778,0.0194 -3.99768,0.0945 -5.7,0.48 -1.90342,0.43104 -3.80556,1.01751 -5.48,2.02 -2.50472,1.49965 -4.61679,3.64138 -6.56,5.82 -1.62169,1.81818 -2.86241,3.94371 -4.2,5.98 -0.53772,0.81863 -1.23176,1.58394 -1.52,2.52 -0.0398,0.12911 -0.093,0.24477 -0.12,0.38 -31.25675,0.0882 -62.51305,0.31019 -93.759999,1.02 -18.762206,0.62707 -37.167472,10.05239 -47.439992,25.98 -4.401784,5.13425 -7.214072,11.19834 -8.48,17.76 -7.317976,19.75288 -4.191064,41.28355 -4.86,61.9 -0.621408,16.44047 2.831368,32.97476 10.28,47.6 8.660096,13.64969 21.606544,25.82672 38.159996,28.3 23.190605,4.82131 47.075915,2.08365 70.579995,2.88 11.85404,-0.0263 23.70564,-0.0182 35.56,-0.02 0.0203,0.0847 0.0548,0.15807 0.08,0.24 0.28824,0.93606 0.98228,1.70139 1.52,2.52 1.33759,2.03628 2.57831,4.16185 4.2,5.98 1.94321,2.17863 4.05528,4.32039 6.56,5.82 1.67444,1.00252 3.57658,1.58899 5.48,2.02 1.70232,0.38547 4.82222,0.46069 5.7,0.48 0.39521,0.0811 0.81989,0.0108 1.1,-0.2 0.28011,-0.21079 0.36846,-0.41857 0.44,-0.9 0.0715,-0.48141 -6e-4,-0.68937 -0.32,-1.9 -0.31915,-1.21063 -1.08197,-3.31953 -1.9,-5.24 -0.81803,-1.92046 -2.17583,-4.55649 -3.08,-6.22 -0.57813,-1.06366 -1.04799,-1.86772 -1.5,-2.6 15.42148,0.007 30.83838,0.007 46.26,0.02 0.0542,0.0712 0.11147,0.14771 0.18,0.22 0.35576,0.37523 0.87286,0.87216 1.86,1.22 0.98715,0.34784 1.03685,0.25022 4.04,0.4 3.00315,0.14979 10.61173,0.0969 12.84002,-0.04 2.22829,-0.13693 2.62509,-0.17186 3.72,-0.6 0.88435,-0.3458 1.54445,-0.51239 1.68,-1.18 23.49574,0.006 47.00493,-0.021 70.50003,-0.12 0.86375,0.29284 1.05882,0.21734 3.92,0.36 3.00288,0.14979 10.63168,0.0969 12.85997,-0.04 1.8375,-0.11291 2.43552,-0.16667 3.2,-0.42 19.41229,-0.12141 38.82912,-0.30509 58.24,-0.58 13.57414,0.032 27.06349,-8.42931 31.62003,-21.48 11.63763,-28.70999 11.42835,-60.54084 10.24,-91.04 -1.52,-19.91366 -4.08928,-40.86446 -14.88,-58.06 -9.66841,-13.69542 -28.30093,-14.09957 -43.48006,-14.04 -14.29447,-0.14953 -28.58432,-0.20843 -42.88,-0.24 -0.4857,-0.0644 -1.07834,-0.11966 -2.05997,-0.18 -2.22829,-0.13683 -9.85709,-0.18976 -12.85997,-0.04 -1.97113,0.0983 -2.63309,0.0978 -3.16006,0.18 -18.30637,-0.005 -36.61344,0.0394 -54.91994,0.04 -5.43936,0.0294 -10.88083,0.0422 -16.32006,0.06 -0.11418,-0.70563 -0.79635,-0.86663 -1.69997,-1.22 -1.09491,-0.42816 -1.49171,-0.4631 -3.72,-0.6 -2.22829,-0.13689 -9.83687,-0.18982 -12.84002,-0.04 -3.00315,0.14976 -3.05285,0.0522 -4.04,0.4 -0.98714,0.34784 -1.50424,0.84477 -1.86,1.22 -0.0889,0.0938 -0.17716,0.18699 -0.24,0.28 -15.42082,0.0197 -30.8389,0.0388 -46.26,0.06 0.47103,-0.75771 0.95512,-1.58712 1.56,-2.7 0.90417,-1.66355 2.26197,-4.29949 3.08,-6.22 0.81803,-1.92045 1.58085,-4.02937 1.9,-5.24 0.3194,-1.21069 0.39154,-1.41853 0.32,-1.9 -0.0715,-0.48141 -0.15989,-0.68925 -0.44,-0.9 -0.19148,-0.14425 -0.45165,-0.21013 -0.72,-0.22 -0.0456,-0.002 -0.0939,-0.002 -0.14,0 z m 52.58,17.08 c 0.56925,-0.006 1.21616,-0.006 1.84,0.02 -0.88726,0.002 -1.77272,-0.002 -2.66,0 0.28238,-0.011 0.57178,-0.0172 0.82,-0.02 z m 161.62002,7.32 c 3.98362,-0.10006 8.47507,0.49707 10.90003,1.74 5.93658,3.04302 9.49709,7.73067 10.88,14.34 0.45127,2.15734 1.52666,5.29191 2.37997,6.98 2.53837,5.02162 4.8743,12.28169 4.66003,14.46 l -0.20006,2.02 -1.97997,-1.86 c -1.08813,-1.02017 -2.95002,-3.95264 -4.12,-6.52 -6.77248,-14.86119 -15.81574,-23.51737 -29.6,-28.36 -1.19942,-0.42138 -1.19046,-0.46785 -0.0602,-1.3 1.2583,-0.92616 4.04166,-1.42217 7.14003,-1.5 z m -214.34002,1.26 c 1.28877,-0.008 2.76232,-0.003 4.4,0 10.91785,0.021 29.10184,0.26157 48.16,0.66 l 13.59999,0.28 5.30003,8.32 c 2.91123,4.56694 5.37677,8.74014 5.48,9.28 0.18515,0.96863 0.13594,0.96669 -4.10003,0.9 -2.3609,-0.0372 -8.51539,-0.213 -13.65997,-0.4 -14.53322,-0.52824 -36.94353,-2.85729 -51.10002,-5.3 l -5.66,-0.96 -1.82,-2.84 c -1.00208,-1.55534 -2.8663,-4.27453 -4.14,-6.06 -1.27368,-1.78547 -2.38732,-3.43261 -2.48,-3.66 -0.0463,-0.11365 2.15371,-0.19541 6.02,-0.22 z m -127.579995,0.46 c 1.03944,5e-5 2.21927,-0.006 3.559996,0 14.445959,0.0595 17.025159,1.16889 11.499999,4.9 -3.1921,2.15562 -23.743005,14.63843 -32.059991,19.48 -7.071624,4.11661 -9.857224,6.48779 -13.02,11.08 -1.273056,1.84842 -3.206832,3.77177 -4.32,4.3 -2.067376,0.98104 -5.291528,1.26847 -6.02,0.54 -0.2256,-0.2256 -0.42,-2.03475 -0.42,-4.02 0,-3.85553 1.171272,-6.73686 5.4,-13.4 3.47964,-5.48282 10.249448,-13.16521 14.26,-16.18 2.051664,-1.54227 6.009864,-3.7001 8.8,-4.78 4.407076,-1.70571 5.043876,-1.92031 12.319996,-1.92 z m 217.499985,0.82 c 1.64902,-0.004 4.24409,0.059 8.26003,0.16 33.70726,0.84835 55.6313,1.59333 55.89997,1.88 0.45107,0.48013 1.70003,8.21307 1.70003,10.54 0,3.62553 0.2832,3.52308 -12.21997,4.18 -8.3664,0.43955 -40.07334,1.42795 -47.62003,1.48 -0.73446,0.005 -1.54112,-1.45207 -4.66003,-8.4 -2.07354,-4.61928 -3.91565,-8.75175 -4.08,-9.18 -0.17735,-0.46263 -0.0282,-0.65358 2.72,-0.66 z m 84.34003,4.84 c 0.72762,-0.0236 1.62912,0.0285 2.77997,0.12 4.51046,0.35861 15.21165,1.87641 15.80006,2.24 1.26336,0.78093 -5.23923,3.08808 -13.2,4.7 -5.92525,1.19971 -6.61395,1.27001 -8.08,0.68 -1.36211,-0.54802 -1.63193,-2.19514 -0.78003,-4.76 0.7241,-2.18021 1.29715,-2.90916 3.48,-2.98 z m -238.72002,3.74 c 1.92495,0 55.0127,11.67285 64.22,14.12 6.20751,1.64986 17.61444,5.50446 25.34,8.56 17.578,6.95228 26.56977,9.32 35.44002,9.32 6.75187,0 7.14182,0.17929 12.68,6.1 l 5.69997,6.1 0,30.24 0,30.26 -5.56,5.94 -5.53997,5.92 -10.76,0.64 c -8.48659,0.49582 -13.21812,1.58867 -22.44002,5.18 -22.9803,8.94935 -37.94438,13.3134 -65.84,19.26 -15.56638,3.31834 -29.53522,6.31725 -31.04,6.66 -2.20387,0.50201 -3.18789,-0.27063 -5.08,-4 -2.90944,-5.73456 -9.30603,-25.69652 -11.14,-34.78 -4.04471,-20.03301 -3.72723,-55.65604 0.64,-73.22 4.07268,-16.37935 11.41631,-36.3 13.38,-36.3 z m 285.20002,6.3 c 3.39469,-0.16631 4.42317,2.7662 8.12,9.7 10.05459,18.8585 13.09901,35.10049 12.16,65 -0.7367,23.45759 -2.7319,32.47286 -10.86003,49 -7.08256,14.40155 -7.26835,14.50003 -17.71994,9.52 -4.73773,-2.25733 -11.80845,-5.30076 -15.70003,-6.76 -3.89158,-1.45924 -7.08,-2.87539 -7.08,-3.14 0,-0.26461 1.92986,-4.29313 4.28,-8.96 7.37645,-14.64765 9.7945,-26.29157 9.72,-46.82 -0.0746,-20.54911 -2.2448,-30.75562 -9.68,-45.52 -2.45971,-4.88434 -4.29261,-9.02499 -4.08,-9.2 0.21267,-0.17501 7.53171,-3.42994 16.25997,-7.24 7.88019,-3.43972 11.93971,-5.45064 14.58003,-5.58 z m -387.220011,110.9 c 0.488216,-0.0427 1.092504,0.0414 1.84,0.22 3.658824,0.87423 4.193248,1.29611 7.28,5.54 3.662152,5.035 5.749016,6.70139 14.84,11.96 13.471746,7.79265 31.589331,19.14478 32.239991,20.2 1.39475,2.26194 -0.26505,2.64016 -12.719999,2.78 -10.283886,0.11546 -12.234546,-0.0221 -15.039996,-1.04 -9.37962,-3.40338 -16.845044,-9.75316 -23.879996,-20.32 -5.177544,-7.77691 -6.403456,-10.62042 -6.42,-14.86 -0.01216,-3.10701 0.395344,-4.35201 1.86,-4.48 z m 409.439981,3.22 0.18003,1.84 c 0.21709,2.13231 -2.36992,10.22075 -4.56,14.22 -0.81773,1.49331 -1.90208,4.67187 -2.4,7.06 -2.11981,10.16655 -9.97318,16.47352 -20.26003,16.3 -2.05351,-0.0346 -4.57319,-0.25391 -5.6,-0.5 -1.02669,-0.24609 -2.40218,-0.75186 -3.05997,-1.12 -1.11949,-0.62647 -1.07507,-0.7076 0.64,-1.4 7.98688,-3.22453 12.3808,-5.8991 16.6,-10.06 5.0361,-4.96646 8.20346,-9.57455 12.29997,-17.94 1.55609,-3.17773 3.56461,-6.37662 4.48,-7.1 l 1.68,-1.3 z m -147.92,18.66 8.72,0.1 c 10.58528,0.11951 31.39923,0.84934 42.66003,1.48 6.70989,0.3758 8.35859,0.59064 8.8,1.16 0.75008,0.96743 0.67104,4.78806 -0.21997,9.44 l -0.76006,3.9 -1.95994,0.3 c -1.89913,0.28723 -24.57369,0.96055 -51.92,1.54 -9.47449,0.20075 -13.39897,0.14826 -13.28,-0.18 0.0927,-0.25608 1.91987,-4.35166 4.05997,-9.1 l 3.89997,-8.64 z m -25.76,0.18 c 4.69472,-0.008 7.74003,0.17931 7.74003,0.62 0,0.57002 -9.58381,16.05708 -10.62003,17.16 -0.51059,0.54346 -11.65154,0.83563 -60.17999,1.56 l -12.7,0.2 1.78,-2.46 c 0.9853,-1.35083 2.97553,-4.28071 4.42,-6.5 1.60182,-2.46103 2.9892,-4.11686 3.54,-4.24 4.92828,-1.1018 23.75501,-3.61132 35.48,-4.74 10.33749,-0.99511 22.71554,-1.58634 30.53999,-1.6 z m 104.58003,5.28 c 1.80902,0.0252 4.37696,0.46624 7.88,1.26 8.77434,1.98822 13.20595,3.94811 10.28,4.56 -2.82042,0.58983 -11.11066,1.60575 -15.22003,1.86 l -4.41997,0.26 -0.88,-1.44 c -0.48224,-0.79289 -1.00243,-2.20768 -1.16,-3.14 -0.39418,-2.3334 0.50496,-3.40202 3.52,-3.36 z"
         id="path4400-3-2"
         style="color:#000000;display:inline;overflow:visible;visibility:visible;fill:#ffcc00;fill-opacity:1;fill-rule:nonzero;stroke:#000000;stroke-width:6.11437812;marker:none;enable-background:accumulate;stroke-opacity:1;stroke-miterlimit:4;stroke-dasharray:none"
         inkscape:connector-curvature="0" />
    </g>
  </g>
  <path
     style="opacity:1;fill:#806600;fill-opacity:1;fill-rule:evenodd;stroke:none;stroke-width:0.685;stroke-linecap:butt;stroke-miterlimit:4;stroke-dasharray:none;stroke-opacity:1"
     d="M 8.3414348,27.592501 C 7.8543089,27.098488 7.6788609,26.673622 7.6788609,25.988003 c 0,-0.512907 -0.488225,-2.339752 -1.0849463,-4.059655 C 5.1421159,17.743882 4.0380481,12.71765 4.5060308,12.423314 4.6914897,12.30667 5.7081683,11.942323 6.7653153,11.613653 10.29713,10.515602 14.715581,10.558922 18.552237,11.729217 c 2.481573,0.756953 2.371463,0.421982 1.466572,4.461571 -0.437395,1.952597 -1.180076,4.578538 -1.650406,5.835425 -0.470328,1.256886 -0.953158,2.918434 -1.072953,3.692327 -0.14057,0.908109 -0.413048,1.609 -0.768377,1.976489 -0.52931,0.547425 -0.685174,0.56941 -4.036815,0.56941 l -3.4862493,0 -0.6625739,-0.671938 z"
     id="path4148"
     inkscape:connector-curvature="0" />
  <path
     style="opacity:1;fill:#806600;fill-opacity:1;fill-rule:evenodd;stroke:none;stroke-width:0.685;stroke-linecap:butt;stroke-miterlimit:4;stroke-dasharray:none;stroke-opacity:1"
     d="M 9.2360031,45.98343 C 7.9810734,45.778433 4.8683664,44.471315 4.8671776,44.148831 4.8657455,43.7615 6.180562,40.961883 6.3638955,40.961883 c 0.1040286,0 0.7253998,0.223627 1.3808247,0.49695 2.5054028,1.044794 6.9198358,1.030388 9.5559288,-0.03119 0.753217,-0.303324 1.405612,-0.505257 1.449767,-0.448739 0.159013,0.203535 1.405226,3.041323 1.405226,3.199879 0,0.3018 -3.07519,1.562976 -4.41146,1.809197 -1.52177,0.280402 -4.777701,0.278124 -6.5081789,-0.0046 z"
     id="path4150"
     inkscape:connector-curvature="0" />
  <path
     style="opacity:1;fill:#f1ff00;fill-opacity:1;fill-rule:evenodd;stroke:none;stroke-width:0.685;stroke-linecap:butt;stroke-miterlimit:4;stroke-dasharray:none;stroke-opacity:1"
     d="M 3.1270519,7.0959491 C 3.0801652,6.9259836 3.040931,6.3177161 3.0398649,5.7442439 3.0375349,4.4917569 3.406757,3.6483317 4.3480995,2.7558139 5.1929806,1.9547534 6.5380467,1.1964611 7.1140951,1.1964611 c 0.6813773,0 0.6050547,0.3102308 -0.2831,1.1507205 C 6.3586798,2.794148 5.5883573,3.8431789 4.7653039,5.1602542 4.0434263,6.315423 3.3986874,7.2930546 3.3325496,7.3327692 3.2664117,7.3724838 3.1739374,7.2659145 3.1270519,7.0959491 Z"
     id="path4154"
     inkscape:connector-curvature="0" />
  <path
     style="opacity:1;fill:#f1ff00;fill-opacity:1;fill-rule:evenodd;stroke:none;stroke-width:0.685;stroke-linecap:butt;stroke-miterlimit:4;stroke-dasharray:none;stroke-opacity:1"
     d="M 20.357199,5.3782961 C 19.654698,4.2385524 18.747899,2.9774651 18.2892,2.5023248 17.333926,1.5128131 17.251151,1.1964611 17.947514,1.1964611 c 0.557963,0 1.837606,0.7605626 2.769043,1.6457949 0.93832,0.8917741 1.153112,1.4768335 1.156804,3.1509574 0.0018,0.7972575 -0.05541,1.4148694 -0.130974,1.4148694 -0.07375,0 -0.697087,-0.913404 -1.385188,-2.0297867 z"
     id="path4156"
     inkscape:connector-curvature="0" />
  <path
     style="opacity:1;fill:#806600;fill-opacity:1;fill-rule:evenodd;stroke:none;stroke-width:0.685;stroke-linecap:butt;stroke-miterlimit:4;stroke-dasharray:none;stroke-opacity:1"
     d="M 4.0909574,27.582401 C 3.6465062,27.311362 3.2455808,26.962809 3.2000114,26.807839 3.1544419,26.652868 3.0762759,24.854617 3.0263079,22.811724 l -0.09085,-3.714349 0.6450424,0.431198 c 0.3547741,0.237158 0.6843607,0.530748 0.7324147,0.652419 0.3072861,0.778033 0.8249378,6.721514 0.6571695,7.545374 l -0.071035,0.348833 -0.8080917,-0.492798 z"
     id="path4160"
     inkscape:connector-curvature="0" />
  <path
     style="opacity:1;fill:#806600;fill-opacity:1;fill-rule:evenodd;stroke:none;stroke-width:0.685;stroke-linecap:butt;stroke-miterlimit:4;stroke-dasharray:none;stroke-opacity:1"
     d="M 3.5297594,36.643357 C 3.3297502,36.489788 3.2835864,35.966076 3.2013627,32.917848 l -0.095673,-3.54682 0.9935654,0.428923 0.9935665,0.428923 -0.077768,2.496735 c -0.042772,1.373205 -0.1183368,2.838375 -0.1679217,3.255934 -0.0889,0.748644 -0.097066,0.759763 -0.5874004,0.79985 -0.2734858,0.02236 -0.6019734,-0.03976 -0.7299722,-0.138036 z"
     id="path4162"
     inkscape:connector-curvature="0" />
  <path
     style="opacity:1;fill:#806600;fill-opacity:1;fill-rule:evenodd;stroke:none;stroke-width:0.685;stroke-linecap:butt;stroke-miterlimit:4;stroke-dasharray:none;stroke-opacity:1"
     d="m 20.226389,36.646128 c -0.09211,-0.144805 -0.305135,-3.834184 -0.329742,-5.710814 l -0.0091,-0.698095 0.997867,-0.430779 0.997868,-0.430781 -0.07764,2.647271 c -0.104412,3.56015 -0.187747,4.547615 -0.394565,4.67528 -0.26881,0.165933 -1.068315,0.130782 -1.184636,-0.05208 z"
     id="path4164"
     inkscape:connector-curvature="0" />
  <path
     style="opacity:1;fill:#ff0000;fill-opacity:1;fill-rule:evenodd;stroke:none;stroke-width:0.685;stroke-linecap:butt;stroke-miterlimit:4;stroke-dasharray:none;stroke-opacity:1"
     d="m 17.951307,46.359334 c 0.09386,-0.102573 0.471161,-0.338148 0.838449,-0.523498 1.525139,-0.769655 2.252595,-1.440891 2.862319,-2.641113 0.394374,-0.776313 0.46057,-0.730702 0.46057,0.317347 0,1.15509 -0.518531,1.86323 -1.583738,2.162862 -0.281812,0.07927 -0.847766,0.278008 -1.257674,0.441638 -0.409908,0.163629 -0.912978,0.327152 -1.117932,0.363384 -0.370968,0.06558 -0.371876,0.06504 -0.201994,-0.12062 z"
     id="path4166"
     inkscape:connector-curvature="0" />
  <path
     style="opacity:1;fill:#806600;fill-opacity:1;fill-rule:evenodd;stroke:none;stroke-width:0.685;stroke-linecap:butt;stroke-miterlimit:4;stroke-dasharray:none;stroke-opacity:1"
     d="m 20.817231,40.319948 c -0.112787,-0.348485 -0.229863,-0.888184 -0.260168,-1.19933 -0.05403,-0.554779 -0.05068,-0.565722 0.173469,-0.565722 0.125712,0 0.306178,0.05514 0.401034,0.122529 0.154125,0.109498 0.165977,0.208161 0.111459,0.927783 -0.03355,0.442891 -0.09694,0.92745 -0.140866,1.076801 -0.07667,0.260683 -0.08806,0.2462 -0.284928,-0.362061 z"
     id="path4168"
     inkscape:connector-curvature="0" />
  <path
     style="opacity:1;fill:#806600;fill-opacity:1;fill-rule:evenodd;stroke:none;stroke-width:0.685;stroke-linecap:butt;stroke-miterlimit:4;stroke-dasharray:none;stroke-opacity:1"
     d="m 3.8227339,40.478349 c -0.02979,-0.186688 -0.082459,-0.650871 -0.11704,-1.031517 -0.058108,-0.639588 -0.048301,-0.699665 0.1292933,-0.792011 0.2740803,-0.142517 0.5478286,-0.12347 0.6134516,0.04268 0.091458,0.231567 -0.348482,2.120277 -0.4938782,2.120277 -0.042716,0 -0.1020373,-0.152744 -0.1318267,-0.339433 z"
     id="path4170"
     inkscape:connector-curvature="0" />
  <path
     style="opacity:1;fill:#ff0000;fill-opacity:1;fill-rule:evenodd;stroke:none;stroke-width:0.685;stroke-linecap:butt;stroke-miterlimit:4;stroke-dasharray:none;stroke-opacity:1"
     d="M 6.2752696,46.302932 C 5.9422198,46.185975 5.3972269,45.999681 5.0641772,45.888947 3.7212717,45.442448 3.3269929,45.173683 3.0026106,44.483657 2.7735564,43.996414 2.7751476,42.62809 3.00477,42.62809 c 0.033861,0 0.1829335,0.274942 0.3312734,0.61098 0.3996615,0.905367 1.4615367,1.896979 2.7254828,2.545138 0.5211557,0.267251 0.9697838,0.542191 0.9969512,0.610979 0.067999,0.172173 -0.079785,0.154765 -0.7832066,-0.09226 z"
     id="path4172"
     inkscape:connector-curvature="0" />
  <path
     style="opacity:1;fill:#2b2200;fill-opacity:1;fill-rule:evenodd;stroke:none;stroke-width:0.685;stroke-linecap:butt;stroke-miterlimit:4;stroke-dasharray:none;stroke-opacity:1"
     d="M 11.216217,46.266646 C 8.9640232,46.17483 7.8707925,45.906418 5.9527535,44.974351 c -0.9933573,-0.48272 -1.2300605,-0.6816 -1.17918,-0.99076 0.016592,-0.10081 0.2067173,-0.563314 0.4225008,-1.027784 0.2157836,-0.464471 0.5103959,-1.132467 0.6546953,-1.484437 0.1442982,-0.351968 0.2892909,-0.675726 0.3222047,-0.71946 0.053515,-0.07111 0.1471169,-0.0384 0.8852098,0.309302 0.4539507,0.21385 0.8038216,0.389843 0.7774908,0.391094 -0.026331,0.0012 -0.3065053,-0.09827 -0.62261,-0.221157 -0.7803277,-0.303356 -0.8629821,-0.313368 -1.0035535,-0.12156 -0.2830648,0.386239 -1.2764051,2.56807 -1.3385297,2.940026 -0.024562,0.147064 -0.00699,0.176345 0.1909667,0.318287 0.465805,0.333989 2.0704193,1.021975 3.2309392,1.385279 1.0804182,0.338227 2.0745594,0.439867 4.2971414,0.439331 1.604312,-4.42e-4 2.442702,-0.05223 3.179376,-0.196606 1.042943,-0.204397 3.436183,-1.113359 4.131,-1.568969 0.123748,-0.08114 0.224996,-0.126113 0.224996,-0.09993 0,0.11921 -1.498949,0.890663 -2.400266,1.235325 -1.624663,0.621271 -3.518696,0.82622 -6.508918,0.704314 z"
     id="path4178"
     inkscape:connector-curvature="0" />
  <path
     style="opacity:1;fill:#2b2200;fill-opacity:1;fill-rule:evenodd;stroke:none;stroke-width:0.685;stroke-linecap:butt;stroke-miterlimit:4;stroke-dasharray:none;stroke-opacity:1"
     d="m 19.906342,43.482426 c -0.454995,-1.104917 -1.096536,-2.473869 -1.172642,-2.502244 -0.104589,-0.039 -0.431464,0.05213 -1.105338,0.308134 -0.315311,0.119788 -0.589852,0.211674 -0.610092,0.204192 -0.02024,-0.0075 0.357049,-0.196012 0.838418,-0.418953 0.481369,-0.222943 0.882148,-0.398072 0.890619,-0.389177 0.03383,0.03553 1.19808,2.615117 1.311566,2.906002 0.227414,0.58291 0.0927,0.487565 -0.152531,-0.107954 z"
     id="path4182"
     inkscape:connector-curvature="0" />
  <path
     style="opacity:1;fill:#2b2200;fill-opacity:1;fill-rule:evenodd;stroke:none;stroke-width:0.685;stroke-linecap:butt;stroke-miterlimit:4;stroke-dasharray:none;stroke-opacity:1"
     d="m 17.924001,23.40652 c -0.0012,-0.04013 0.188261,-0.62025 0.421076,-1.289147 0.700538,-2.012709 1.28226,-4.112503 1.875063,-6.768257 0.489314,-2.192117 0.503201,-2.574315 0.106872,-2.941002 -0.215428,-0.199317 -0.536273,-0.324584 -1.719154,-0.671209 -3.590829,-1.052238 -7.151564,-1.207266 -10.5991354,-0.461469 -0.9980423,0.215901 -3.2992217,0.980387 -3.5106432,1.166288 -0.2665732,0.234394 0.031034,2.256093 0.7321464,4.973616 0.3670797,1.422801 0.7247622,2.622325 1.2972804,4.350542 0.4445002,1.341779 0.5208262,1.599384 0.4549077,1.535338 C 6.9687024,23.287898 6.788907,22.827211 6.5828694,22.277472 5.8407269,20.29732 5.4323672,18.812058 4.6267737,15.162873 4.0442856,12.524315 4.0444742,12.540691 4.5934031,12.271662 5.240614,11.954466 7.3561152,11.29292 8.4218547,11.074455 c 1.0356012,-0.212289 1.8099643,-0.277373 3.6068713,-0.303153 2.812785,-0.04035 4.00266,0.09706 6.043849,0.697996 1.432807,0.421823 2.553846,0.859084 2.649988,1.033626 0.133735,0.242788 0.113337,0.508458 -0.120028,1.56336 -0.888798,4.01771 -1.278129,5.595525 -1.656522,6.713295 -0.309285,0.913624 -1.018659,2.736974 -1.022012,2.626941 z"
     id="path4184"
     inkscape:connector-curvature="0" />
  <path
     style="opacity:1;fill:#2b2200;fill-opacity:1;fill-rule:evenodd;stroke:none;stroke-width:0.685;stroke-linecap:butt;stroke-miterlimit:4;stroke-dasharray:none;stroke-opacity:1"
     d="M 9.1978293,28.348163 C 9.0832716,28.32379 8.9674386,28.29183 8.9404236,28.277141 8.8541004,28.230204 7.7691745,27.236161 7.7334159,27.171242 7.714499,27.136899 7.6928451,26.94048 7.6852972,26.734758 l -0.013723,-0.374041 0.047269,0.199234 c 0.061406,0.258818 0.2165849,0.571887 0.3894643,0.785732 0.075834,0.0938 0.3083988,0.340269 0.5168118,0.547701 l 0.3789329,0.377149 2.7943491,-4.42e-4 c 3.478574,-5.52e-4 3.919041,-0.02576 4.339163,-0.247925 0.252816,-0.133693 0.5569,-0.475585 0.729857,-0.820602 0.171994,-0.343098 0.262731,-0.620044 0.36755,-1.12184 l 0.07539,-0.360927 -0.01661,0.497514 c -0.01496,0.448151 -0.02602,0.521538 -0.111464,0.739626 -0.14399,0.367512 -0.240314,0.489288 -0.779616,0.985628 l -0.496986,0.457393 -3.249788,-0.0032 c -2.631671,-0.0026 -3.289405,-0.01165 -3.4580757,-0.04754 z"
     id="path4188"
     inkscape:connector-curvature="0" />
  <path
     style="opacity:1;fill:#2b2200;fill-opacity:1;fill-rule:evenodd;stroke:none;stroke-width:0.685;stroke-linecap:butt;stroke-miterlimit:4;stroke-dasharray:none;stroke-opacity:1"
     d="m 4.9473781,28.142867 c -0.04669,-0.02654 -0.045683,-0.05705 0.010297,-0.311977 0.054521,-0.248292 0.059868,-0.377921 0.044096,-1.068951 -0.04336,-1.89974 -0.3915146,-5.453549 -0.6320458,-6.451645 -0.017051,-0.07075 -0.014784,-0.07328 0.019156,-0.02139 0.098272,0.150241 0.4627397,2.877876 0.575429,4.306442 0.1054516,1.3368 0.1589883,3.280453 0.096591,3.506677 -0.021871,0.07929 -0.036585,0.08459 -0.1135189,0.04085 z"
     id="path4190"
     inkscape:connector-curvature="0" />
</svg>
