<?xml version="1.0" encoding="UTF-8" standalone="no"?>
<!-- Created with Inkscape (http://www.inkscape.org/) -->

<svg
   xmlns:dc="http://purl.org/dc/elements/1.1/"
   xmlns:cc="http://creativecommons.org/ns#"
   xmlns:rdf="http://www.w3.org/1999/02/22-rdf-syntax-ns#"
   xmlns:svg="http://www.w3.org/2000/svg"
   xmlns="http://www.w3.org/2000/svg"
   xmlns:sodipodi="http://sodipodi.sourceforge.net/DTD/sodipodi-0.dtd"
   xmlns:inkscape="http://www.inkscape.org/namespaces/inkscape"
   width="35"
   height="50"
   viewBox="0 0 35.000001 49.999997"
   id="svg2"
   version="1.1"
   inkscape:version="0.91 r13725"
   sodipodi:docname="plane.svg">
  <defs
     id="defs4" />
  <sodipodi:namedview
     id="base"
     pagecolor="#ffffff"
     bordercolor="#666666"
     borderopacity="1.0"
     inkscape:pageopacity="0.0"
     inkscape:pageshadow="2"
     inkscape:zoom="12.32"
     inkscape:cx="-23.246808"
     inkscape:cy="26.4245"
     inkscape:document-units="px"
     inkscape:current-layer="layer1"
     showgrid="false"
     inkscape:window-width="1920"
     inkscape:window-height="1017"
     inkscape:window-x="-8"
     inkscape:window-y="-8"
     inkscape:window-maximized="1"
     units="px" />
  <metadata
     id="metadata7">
    <rdf:RDF>
      <cc:Work
         rdf:about="">
        <dc:format>image/svg+xml</dc:format>
        <dc:type
           rdf:resource="http://purl.org/dc/dcmitype/StillImage" />
        <dc:title />
      </cc:Work>
    </rdf:RDF>
  </metadata>
  <g
     inkscape:label="Layer 1"
     inkscape:groupmode="layer"
     id="layer1"
     transform="translate(0,-1002.3622)">
    <path
       style="opacity:1;fill:#ffcc00;fill-opacity:1;fill-rule:evenodd;stroke:#000000;stroke-width:0.685;stroke-linecap:butt;stroke-miterlimit:4;stroke-dasharray:none;stroke-opacity:1;stroke-linejoin:round"
       d="m 17.851748,1002.5199 -9e-5,0.041 c -1.47701,0.8268 -1.88354,2.3479 -1.96429,4.1689 l -0.87386,4.9903 0.19484,8.4925 -1.90107,2.1672 -0.40732,-1.3919 -2.17268,-0.034 0,3.0892 -10.62558968,7.2563 0.37335,2.911 10.15040968,-4.15 -0.14425,1.135 2.70726,-0.2228 -0.14425,-1.3091 2.16414,-0.3586 0.28043,12.2817 0.41605,2.2814 -5.18628,4.4825 c 0.009,3.6175 0.0942,2.5028 0.10295,3.8692 l 7.06646,-2.9749 7.06655,2.9749 c 0.009,-1.3664 0.0942,-0.2517 0.10294,-3.8692 l -5.18636,-4.4825 0.41614,-2.2814 0.28033,-12.2817 2.16414,0.3586 -0.14425,1.3091 2.70736,0.2228 -0.14425,-1.135 10.15032,4.15 0.37343,-2.911 -10.62568,-7.2563 0,-3.0892 -2.17259,0.034 -0.40741,1.3919 -1.90107,-2.1672 0.19493,-8.4925 -0.87386,-4.9903 c -0.0808,-1.821 -0.48731,-3.3421 -1.96429,-4.1689 l -9e-5,-0.041 c -0.0124,0.01 -0.0241,0.014 -0.0363,0.02 -0.0122,-0.01 -0.0239,-0.014 -0.0362,-0.02 z"
       id="rect4147"
       inkscape:connector-curvature="0" />
    <path
       style="opacity:1;fill:#806600;fill-opacity:1;fill-rule:evenodd;stroke:#000000;stroke-width:0.685;stroke-linecap:butt;stroke-miterlimit:4;stroke-dasharray:none;stroke-opacity:1"
       d="m 10.571448,1020.8975 2.51026,0.077 0.26829,2.5823 -0.23198,6.1915 0.16109,1.2601 -2.76913,0.1881 0.20441,-1.072 z"
       id="rect4155"
       inkscape:connector-curvature="0"
       sodipodi:nodetypes="cccccccc" />
    <path
       sodipodi:nodetypes="cccccccc"
       inkscape:connector-curvature="0"
       id="path4160"
       d="m 25.250468,1020.8975 -2.51025,0.077 -0.2683,2.5823 0.23199,6.1915 -0.1611,1.2601 2.76914,0.1881 -0.20442,-1.072 z"
       style="opacity:1;fill:#806600;fill-opacity:1;fill-rule:evenodd;stroke:#000000;stroke-width:0.685;stroke-linecap:butt;stroke-miterlimit:4;stroke-dasharray:none;stroke-opacity:1" />
    <rect
       style="opacity:1;fill:#806600;fill-opacity:1;fill-rule:evenodd;stroke:#000000;stroke-width:0.685;stroke-linecap:butt;stroke-miterlimit:4;stroke-dasharray:none;stroke-opacity:1"
       id="rect4162"
       width="2.9627111"
       height="5.6785297"
       x="16.40666"
       y="1004.7049"
       ry="1.4813555" />
    <path
       style="opacity:1;fill:#806600;fill-opacity:1;fill-rule:evenodd;stroke:#000000;stroke-width:0.685;stroke-linecap:butt;stroke-miterlimit:4;stroke-dasharray:none;stroke-opacity:1"
       d="m 10.777878,1048.3428 7.22201,-2.9627 7.09856,2.9627 -0.0617,3.0338 -7.09856,-2.9627 -7.22201,2.9627 z"
       id="rect4137"
       inkscape:connector-curvature="0"
       sodipodi:nodetypes="ccccccc" />
  </g>
</svg>
