<?xml version="1.0" encoding="UTF-8" standalone="no"?>
<!-- Created with Inkscape (http://www.inkscape.org/) -->

<svg
   xmlns:dc="http://purl.org/dc/elements/1.1/"
   xmlns:cc="http://creativecommons.org/ns#"
   xmlns:rdf="http://www.w3.org/1999/02/22-rdf-syntax-ns#"
   xmlns:svg="http://www.w3.org/2000/svg"
   xmlns="http://www.w3.org/2000/svg"
   xmlns:sodipodi="http://sodipodi.sourceforge.net/DTD/sodipodi-0.dtd"
   xmlns:inkscape="http://www.inkscape.org/namespaces/inkscape"
   id="svg2"
   version="1.1"
   inkscape:version="0.91 r13725"
   width="24"
   height="48"
   viewBox="0 0 24 48"
   sodipodi:docname="submarine.svg">
  <metadata
     id="metadata8">
    <rdf:RDF>
      <cc:Work
         rdf:about="">
        <dc:format>image/svg+xml</dc:format>
        <dc:type
           rdf:resource="http://purl.org/dc/dcmitype/StillImage" />
        <dc:title />
      </cc:Work>
    </rdf:RDF>
  </metadata>
  <defs
     id="defs6" />
  <sodipodi:namedview
     pagecolor="#ffffff"
     bordercolor="#666666"
     borderopacity="1"
     objecttolerance="10"
     gridtolerance="10"
     guidetolerance="10"
     inkscape:pageopacity="0"
     inkscape:pageshadow="2"
     inkscape:window-width="1920"
     inkscape:window-height="1017"
     id="namedview4"
     showgrid="false"
     inkscape:zoom="7.6003655"
     inkscape:cx="-19.957258"
     inkscape:cy="10.351562"
     inkscape:window-x="-8"
     inkscape:window-y="-8"
     inkscape:window-maximized="1"
     inkscape:current-layer="svg2" />
  <path
     style="opacity:1;fill:#ffcc00;fill-opacity:1;fill-rule:evenodd;stroke:#000000;stroke-width:0.685;stroke-linecap:butt;stroke-miterlimit:4;stroke-dasharray:none;stroke-opacity:1"
     d="m 14.992564,41.159714 c 0,0 1.84878,0.71424 2.83733,0.9517 1.79331,0.43079 4.3877,0.0606 5.74502,1.26038 0.4461,0.39431 0.21538,1.28099 0.21538,1.28099 l -10.35927,0 z"
     id="rect4169"
     inkscape:connector-curvature="0"
     sodipodi:nodetypes="cssccc" />
  <path
     sodipodi:nodetypes="cssccc"
     inkscape:connector-curvature="0"
     id="path4202"
     d="m 9.0074244,41.159714 c 0,0 -1.84877,0.71424 -2.83732,0.9517 -1.79332,0.43079 -4.38771,0.0606 -5.74503005,1.26038 -0.44609,0.39431 -0.21538,1.28099 -0.21538,1.28099 l 10.35926965,0 z"
     style="opacity:1;fill:#ffcc00;fill-opacity:1;fill-rule:evenodd;stroke:#000000;stroke-width:0.685;stroke-linecap:butt;stroke-miterlimit:4;stroke-dasharray:none;stroke-opacity:1" />
  <path
     style="opacity:1;fill:#ffcc00;fill-opacity:1;fill-rule:evenodd;stroke:#000000;stroke-width:0.685;stroke-linecap:butt;stroke-miterlimit:4;stroke-dasharray:none;stroke-opacity:1"
     d="m 11.965724,0.15341442 0,0.002 -2.9892796,0.0675 -1.98022,0.6226 -1.40094,1.17601998 c 0,0 -1.11829,1.09329 -1.18371,1.79875 -0.44241,4.77066 -0.21723,14.7074396 -0.21723,14.7074396 l 0.72408,11.24857 4.05502,11.45594 2.3894696,5.3682 0.64133,-0.0653 0.64134,0.0653 2.38962,-5.3682 4.05501,-11.45594 0.72409,-11.24857 c 0,0 0.22518,-9.9367796 -0.21723,-14.7074396 -0.0654,-0.70546 -1.18371,-1.79875 -1.18371,-1.79875 l -1.40094,-1.17601998 -1.98022,-0.6226 -2.98943,-0.0675 0,-0.002 -0.0385,8.6e-4 -0.0385,-8.6e-4 z"
     id="rect4143"
     inkscape:connector-curvature="0" />
  <path
     style="opacity:1;fill:#ffcc00;fill-opacity:1;fill-rule:evenodd;stroke:#000000;stroke-width:0.685;stroke-linecap:butt;stroke-miterlimit:4;stroke-dasharray:none;stroke-opacity:1"
     d="m 11.972024,0.68564442 0,0.005 -1.87228,0.13377 -1.5749896,0.13835 -1.50244,0.96862998 c 0,0 -1.19508,1.13215 -1.43018,2.49039 -0.60862,3.51621 -0.28963,10.6884096 -0.28963,10.6884096 l 0.43445,12.76374 1.81036,5.15393 3.8377896,7.71349 0.58692,0 0.0648,0 0.58691,0 3.83779,-7.71349 1.8102,-5.15393 0.43446,-12.76374 c 0,0 0.31899,-7.1721996 -0.28963,-10.6884096 -0.2351,-1.35824 -1.43003,-2.49039 -1.43003,-2.49039 l -1.50259,-0.96862998 -1.57499,-0.13835 -1.87212,-0.13377 0,-0.005 -0.0323,0.002 -0.0323,-0.002 z"
     id="rect4146"
     inkscape:connector-curvature="0" />
  <path
     style="color:#000000;clip-rule:nonzero;display:inline;overflow:visible;visibility:visible;opacity:1;isolation:auto;mix-blend-mode:normal;color-interpolation:sRGB;color-interpolation-filters:linearRGB;solid-color:#000000;solid-opacity:1;fill:#ffcc00;fill-opacity:1;fill-rule:nonzero;stroke:#000000;stroke-width:0.685;stroke-linecap:butt;stroke-linejoin:miter;stroke-miterlimit:4;stroke-dasharray:none;stroke-dashoffset:0;stroke-opacity:1;color-rendering:auto;image-rendering:auto;shape-rendering:auto;text-rendering:auto;enable-background:accumulate"
     d="m 11.969094,6.7993344 0,0.0146 A 2.9871552,12.322803 0 0 0 9.0523744,19.122224 2.9871552,12.322803 0 0 0 11.969094,31.434654 l 0,0.0103 a 2.9871552,12.322803 0 0 0 0.0353,-0.005 2.9871552,12.322803 0 0 0 0.0353,0.005 l 0,-0.0103 a 2.9871552,12.322803 0 0 0 2.91672,-12.31243 2.9871552,12.322803 0 0 0 -2.91672,-12.3082896 l 0,-0.0146 a 2.9871552,12.322803 0 0 0 -0.0353,0.007 2.9871552,12.322803 0 0 0 -0.0353,-0.007 z"
     id="path4149"
     inkscape:connector-curvature="0" />
  <path
     style="color:#000000;clip-rule:nonzero;display:inline;overflow:visible;visibility:visible;opacity:1;isolation:auto;mix-blend-mode:normal;color-interpolation:sRGB;color-interpolation-filters:linearRGB;solid-color:#000000;solid-opacity:1;fill:#ffcc00;fill-opacity:1;fill-rule:nonzero;stroke:#000000;stroke-width:0.685;stroke-linecap:butt;stroke-linejoin:miter;stroke-miterlimit:4;stroke-dasharray:none;stroke-dashoffset:0;stroke-opacity:1;color-rendering:auto;image-rendering:auto;shape-rendering:auto;text-rendering:auto;enable-background:accumulate"
     d="m 11.935734,11.540204 0,0.0127 a 2.4398742,4.5380333 0 0 0 -2.3026696,4.52532 2.4398742,4.5380333 0 0 0 2.3026696,4.5289 l 0,0.009 a 2.4398742,4.5380333 0 0 0 0.0686,-0.005 2.4398742,4.5380333 0 0 0 0.0687,0.005 l 0,-0.009 a 2.4398742,4.5380333 0 0 0 2.30267,-4.5289 2.4398742,4.5380333 0 0 0 -2.30267,-4.52532 l 0,-0.0127 a 2.4398742,4.5380333 0 0 0 -0.0687,0.006 2.4398742,4.5380333 0 0 0 -0.0686,-0.006 z"
     id="path4151"
     inkscape:connector-curvature="0" />
  <rect
     style="opacity:1;fill:#ffcc00;fill-opacity:1;fill-rule:evenodd;stroke:#000000;stroke-width:0.685;stroke-linecap:butt;stroke-miterlimit:4;stroke-dasharray:none;stroke-opacity:1"
     id="rect4172"
     width="5.4923339"
     height="1.1317624"
     x="16.706827"
     y="43.521027" />
  <rect
     style="opacity:1;fill:#ffcc00;fill-opacity:1;fill-rule:evenodd;stroke:#000000;stroke-width:0.685;stroke-linecap:butt;stroke-miterlimit:4;stroke-dasharray:none;stroke-opacity:1"
     id="rect4174"
     width="1.723085"
     height="0.7202124"
     x="14.929895"
     y="43.932556" />
  <rect
     style="opacity:1;fill:#ffcc00;fill-opacity:1;fill-rule:evenodd;stroke:#000000;stroke-width:0.685;stroke-linecap:butt;stroke-miterlimit:4;stroke-dasharray:none;stroke-opacity:1"
     id="rect4176"
     width="4.523098"
     height="1.2860936"
     x="17.08375"
     y="9.7224731" />
  <rect
     style="opacity:1;fill:#ffcc00;fill-opacity:1;fill-rule:evenodd;stroke:none;stroke-width:0.685;stroke-linecap:butt;stroke-miterlimit:4;stroke-dasharray:none;stroke-opacity:1"
     id="rect4178"
     width="0.70000327"
     height="0.66876864"
     x="16.814524"
     y="14.352417" />
  <rect
     y="15.525726"
     x="16.814524"
     height="0.66876864"
     width="0.70000327"
     id="rect4180"
     style="opacity:1;fill:#ffcc00;fill-opacity:1;fill-rule:evenodd;stroke:none;stroke-width:0.685;stroke-linecap:butt;stroke-miterlimit:4;stroke-dasharray:none;stroke-opacity:1" />
  <rect
     style="opacity:1;fill:#ffcc00;fill-opacity:1;fill-rule:evenodd;stroke:none;stroke-width:0.685;stroke-linecap:butt;stroke-miterlimit:4;stroke-dasharray:none;stroke-opacity:1"
     id="rect4182"
     width="0.70000327"
     height="0.66876864"
     x="16.507502"
     y="18.018951" />
  <rect
     y="18.898926"
     x="16.507502"
     height="0.66876864"
     width="0.70000327"
     id="rect4184"
     style="opacity:1;fill:#ffcc00;fill-opacity:1;fill-rule:evenodd;stroke:none;stroke-width:0.685;stroke-linecap:butt;stroke-miterlimit:4;stroke-dasharray:none;stroke-opacity:1" />
  <rect
     style="opacity:1;fill:#ffcc00;fill-opacity:1;fill-rule:evenodd;stroke:none;stroke-width:0.685;stroke-linecap:butt;stroke-miterlimit:4;stroke-dasharray:none;stroke-opacity:1"
     id="rect4186"
     width="0.70000327"
     height="0.66876864"
     x="16.507502"
     y="20.512238" />
  <rect
     y="21.392212"
     x="16.507502"
     height="0.66876864"
     width="0.70000327"
     id="rect4188"
     style="opacity:1;fill:#ffcc00;fill-opacity:1;fill-rule:evenodd;stroke:none;stroke-width:0.685;stroke-linecap:butt;stroke-miterlimit:4;stroke-dasharray:none;stroke-opacity:1" />
  <rect
     style="opacity:1;fill:#ffcc00;fill-opacity:1;fill-rule:evenodd;stroke:none;stroke-width:0.685;stroke-linecap:butt;stroke-miterlimit:4;stroke-dasharray:none;stroke-opacity:1"
     id="rect4190"
     width="0.70000327"
     height="0.66876864"
     x="16.507502"
     y="24.032104" />
  <rect
     y="24.912079"
     x="16.507502"
     height="0.66876864"
     width="0.70000327"
     id="rect4192"
     style="opacity:1;fill:#ffcc00;fill-opacity:1;fill-rule:evenodd;stroke:none;stroke-width:0.685;stroke-linecap:butt;stroke-miterlimit:4;stroke-dasharray:none;stroke-opacity:1" />
  <rect
     style="opacity:1;fill:#ffcc00;fill-opacity:1;fill-rule:evenodd;stroke:none;stroke-width:0.685;stroke-linecap:butt;stroke-miterlimit:4;stroke-dasharray:none;stroke-opacity:1"
     id="rect4194"
     width="0.70000327"
     height="0.66876864"
     x="16.507502"
     y="26.52533" />
  <rect
     y="27.405304"
     x="16.123713"
     height="0.66876864"
     width="0.70000327"
     id="rect4196"
     style="opacity:1;fill:#ffcc00;fill-opacity:1;fill-rule:evenodd;stroke:none;stroke-width:0.685;stroke-linecap:butt;stroke-miterlimit:4;stroke-dasharray:none;stroke-opacity:1" />
  <rect
     style="opacity:1;fill:#ffcc00;fill-opacity:1;fill-rule:evenodd;stroke:none;stroke-width:0.685;stroke-linecap:butt;stroke-miterlimit:4;stroke-dasharray:none;stroke-opacity:1"
     id="rect4198"
     width="0.70000327"
     height="0.66876864"
     x="16.123713"
     y="28.871948" />
  <rect
     y="29.605255"
     x="15.586435"
     height="0.66876864"
     width="0.70000327"
     id="rect4200"
     style="opacity:1;fill:#ffcc00;fill-opacity:1;fill-rule:evenodd;stroke:none;stroke-width:0.685;stroke-linecap:butt;stroke-miterlimit:4;stroke-dasharray:none;stroke-opacity:1" />
  <rect
     y="43.521027"
     x="-7.2931614"
     height="1.1317624"
     width="5.4923339"
     id="rect4204"
     style="opacity:1;fill:#ffcc00;fill-opacity:1;fill-rule:evenodd;stroke:#000000;stroke-width:0.685;stroke-linecap:butt;stroke-miterlimit:4;stroke-dasharray:none;stroke-opacity:1"
     transform="scale(-1,1)" />
  <rect
     y="43.932556"
     x="-9.0700932"
     height="0.7202124"
     width="1.723085"
     id="rect4206"
     style="opacity:1;fill:#ffcc00;fill-opacity:1;fill-rule:evenodd;stroke:#000000;stroke-width:0.685;stroke-linecap:butt;stroke-miterlimit:4;stroke-dasharray:none;stroke-opacity:1"
     transform="scale(-1,1)" />
  <rect
     y="9.7224731"
     x="-6.9162388"
     height="1.2860936"
     width="4.523098"
     id="rect4208"
     style="opacity:1;fill:#ffcc00;fill-opacity:1;fill-rule:evenodd;stroke:#000000;stroke-width:0.685;stroke-linecap:butt;stroke-miterlimit:4;stroke-dasharray:none;stroke-opacity:1"
     transform="scale(-1,1)" />
  <rect
     y="14.352417"
     x="-7.1854801"
     height="0.66876864"
     width="0.70000327"
     id="rect4210"
     style="opacity:1;fill:#ffcc00;fill-opacity:1;fill-rule:evenodd;stroke:none;stroke-width:0.685;stroke-linecap:butt;stroke-miterlimit:4;stroke-dasharray:none;stroke-opacity:1"
     transform="scale(-1,1)" />
  <rect
     style="opacity:1;fill:#ffcc00;fill-opacity:1;fill-rule:evenodd;stroke:none;stroke-width:0.685;stroke-linecap:butt;stroke-miterlimit:4;stroke-dasharray:none;stroke-opacity:1"
     id="rect4212"
     width="0.70000327"
     height="0.66876864"
     x="-7.1854801"
     y="15.525726"
     transform="scale(-1,1)" />
  <rect
     y="18.018951"
     x="-7.4925022"
     height="0.66876864"
     width="0.70000327"
     id="rect4214"
     style="opacity:1;fill:#ffcc00;fill-opacity:1;fill-rule:evenodd;stroke:none;stroke-width:0.685;stroke-linecap:butt;stroke-miterlimit:4;stroke-dasharray:none;stroke-opacity:1"
     transform="scale(-1,1)" />
  <rect
     style="opacity:1;fill:#ffcc00;fill-opacity:1;fill-rule:evenodd;stroke:none;stroke-width:0.685;stroke-linecap:butt;stroke-miterlimit:4;stroke-dasharray:none;stroke-opacity:1"
     id="rect4216"
     width="0.70000327"
     height="0.66876864"
     x="-7.4925022"
     y="18.898926"
     transform="scale(-1,1)" />
  <rect
     y="20.512238"
     x="-7.4925022"
     height="0.66876864"
     width="0.70000327"
     id="rect4218"
     style="opacity:1;fill:#ffcc00;fill-opacity:1;fill-rule:evenodd;stroke:none;stroke-width:0.685;stroke-linecap:butt;stroke-miterlimit:4;stroke-dasharray:none;stroke-opacity:1"
     transform="scale(-1,1)" />
  <rect
     style="opacity:1;fill:#ffcc00;fill-opacity:1;fill-rule:evenodd;stroke:none;stroke-width:0.685;stroke-linecap:butt;stroke-miterlimit:4;stroke-dasharray:none;stroke-opacity:1"
     id="rect4220"
     width="0.70000327"
     height="0.66876864"
     x="-7.4925022"
     y="21.392212"
     transform="scale(-1,1)" />
  <rect
     y="24.032104"
     x="-7.4925022"
     height="0.66876864"
     width="0.70000327"
     id="rect4222"
     style="opacity:1;fill:#ffcc00;fill-opacity:1;fill-rule:evenodd;stroke:none;stroke-width:0.685;stroke-linecap:butt;stroke-miterlimit:4;stroke-dasharray:none;stroke-opacity:1"
     transform="scale(-1,1)" />
  <rect
     style="opacity:1;fill:#ffcc00;fill-opacity:1;fill-rule:evenodd;stroke:none;stroke-width:0.685;stroke-linecap:butt;stroke-miterlimit:4;stroke-dasharray:none;stroke-opacity:1"
     id="rect4224"
     width="0.70000327"
     height="0.66876864"
     x="-7.4925022"
     y="24.912079"
     transform="scale(-1,1)" />
  <rect
     y="26.52533"
     x="-7.4925022"
     height="0.66876864"
     width="0.70000327"
     id="rect4226"
     style="opacity:1;fill:#ffcc00;fill-opacity:1;fill-rule:evenodd;stroke:none;stroke-width:0.685;stroke-linecap:butt;stroke-miterlimit:4;stroke-dasharray:none;stroke-opacity:1"
     transform="scale(-1,1)" />
  <rect
     style="opacity:1;fill:#ffcc00;fill-opacity:1;fill-rule:evenodd;stroke:none;stroke-width:0.685;stroke-linecap:butt;stroke-miterlimit:4;stroke-dasharray:none;stroke-opacity:1"
     id="rect4228"
     width="0.70000327"
     height="0.66876864"
     x="-7.876276"
     y="27.405304"
     transform="scale(-1,1)" />
  <rect
     y="28.871948"
     x="-7.876276"
     height="0.66876864"
     width="0.70000327"
     id="rect4230"
     style="opacity:1;fill:#ffcc00;fill-opacity:1;fill-rule:evenodd;stroke:none;stroke-width:0.685;stroke-linecap:butt;stroke-miterlimit:4;stroke-dasharray:none;stroke-opacity:1"
     transform="scale(-1,1)" />
  <rect
     style="opacity:1;fill:#ffcc00;fill-opacity:1;fill-rule:evenodd;stroke:none;stroke-width:0.685;stroke-linecap:butt;stroke-miterlimit:4;stroke-dasharray:none;stroke-opacity:1"
     id="rect4232"
     width="0.70000327"
     height="0.66876864"
     x="-8.4135685"
     y="29.605255"
     transform="scale(-1,1)" />
  <rect
     style="opacity:1;fill:#ffcc00;fill-opacity:1;fill-rule:evenodd;stroke:#000000;stroke-width:0.685;stroke-linecap:butt;stroke-miterlimit:4;stroke-dasharray:none;stroke-opacity:1"
     id="rect4234"
     width="1.4000065"
     height="2.4692996"
     x="11.304316"
     y="1.6458126" />
  <ellipse
     style="color:#000000;clip-rule:nonzero;display:inline;overflow:visible;visibility:visible;opacity:1;isolation:auto;mix-blend-mode:normal;color-interpolation:sRGB;color-interpolation-filters:linearRGB;solid-color:#000000;solid-opacity:1;fill:#ffcc00;fill-opacity:1;fill-rule:nonzero;stroke:#000000;stroke-width:0.685;stroke-linecap:butt;stroke-linejoin:miter;stroke-miterlimit:4;stroke-dasharray:none;stroke-dashoffset:0;stroke-opacity:1;color-rendering:auto;image-rendering:auto;shape-rendering:auto;text-rendering:auto;enable-background:accumulate"
     id="path4236"
     cx="12.004328"
     cy="31.971893"
     rx="1.319237"
     ry="0.54015929" />
  <ellipse
     style="color:#000000;clip-rule:nonzero;display:inline;overflow:visible;visibility:visible;opacity:1;isolation:auto;mix-blend-mode:normal;color-interpolation:sRGB;color-interpolation-filters:linearRGB;solid-color:#000000;solid-opacity:1;fill:#ffcc00;fill-opacity:1;fill-rule:nonzero;stroke:#000000;stroke-width:0.685;stroke-linecap:butt;stroke-linejoin:miter;stroke-miterlimit:4;stroke-dasharray:none;stroke-dashoffset:0;stroke-opacity:1;color-rendering:auto;image-rendering:auto;shape-rendering:auto;text-rendering:auto;enable-background:accumulate"
     id="path4238"
     cx="12.004328"
     cy="42.87796"
     rx="0.59231049"
     ry="1.3118155" />
  <ellipse
     style="color:#000000;clip-rule:nonzero;display:inline;overflow:visible;visibility:visible;opacity:1;isolation:auto;mix-blend-mode:normal;color-interpolation:sRGB;color-interpolation-filters:linearRGB;solid-color:#000000;solid-opacity:1;fill:#ffcc00;fill-opacity:1;fill-rule:nonzero;stroke:#000000;stroke-width:0.685;stroke-linecap:butt;stroke-linejoin:miter;stroke-miterlimit:4;stroke-dasharray:none;stroke-dashoffset:0;stroke-opacity:1;color-rendering:auto;image-rendering:auto;shape-rendering:auto;text-rendering:auto;enable-background:accumulate"
     id="path4240"
     cx="12.004328"
     cy="46.91629"
     rx="2.7461669"
     ry="0.30866244" />
  <ellipse
     style="color:#000000;clip-rule:nonzero;display:inline;overflow:visible;visibility:visible;opacity:1;isolation:auto;mix-blend-mode:normal;color-interpolation:sRGB;color-interpolation-filters:linearRGB;solid-color:#000000;solid-opacity:1;fill:#ffcc00;fill-opacity:1;fill-rule:nonzero;stroke:#000000;stroke-width:0.685;stroke-linecap:butt;stroke-linejoin:miter;stroke-miterlimit:4;stroke-dasharray:none;stroke-dashoffset:0;stroke-opacity:1;color-rendering:auto;image-rendering:auto;shape-rendering:auto;text-rendering:auto;enable-background:accumulate"
     id="path4242"
     cx="12.004328"
     cy="47.54129"
     rx="0.8076961"
     ry="0.30866244" />
  <rect
     style="opacity:1;fill:#ffcc00;fill-opacity:1;fill-rule:evenodd;stroke:#000000;stroke-width:0.685;stroke-linecap:butt;stroke-miterlimit:4;stroke-dasharray:none;stroke-opacity:1"
     id="rect4244"
     width="1.8846242"
     height="0.66876864"
     x="11.062006"
     y="40.794495" />
  <ellipse
     ry="0.54015929"
     rx="1.319237"
     cy="9.5326233"
     cx="12.004328"
     id="ellipse4246"
     style="color:#000000;clip-rule:nonzero;display:inline;overflow:visible;visibility:visible;opacity:1;isolation:auto;mix-blend-mode:normal;color-interpolation:sRGB;color-interpolation-filters:linearRGB;solid-color:#000000;solid-opacity:1;fill:#ffcc00;fill-opacity:1;fill-rule:nonzero;stroke:#000000;stroke-width:0.685;stroke-linecap:butt;stroke-linejoin:miter;stroke-miterlimit:4;stroke-dasharray:none;stroke-dashoffset:0;stroke-opacity:1;color-rendering:auto;image-rendering:auto;shape-rendering:auto;text-rendering:auto;enable-background:accumulate" />
</svg>
