<?xml version="1.0" encoding="UTF-8" standalone="no"?>
<!-- Created with Inkscape (http://www.inkscape.org/) -->

<svg
   xmlns:dc="http://purl.org/dc/elements/1.1/"
   xmlns:cc="http://creativecommons.org/ns#"
   xmlns:rdf="http://www.w3.org/1999/02/22-rdf-syntax-ns#"
   xmlns:svg="http://www.w3.org/2000/svg"
   xmlns="http://www.w3.org/2000/svg"
   xmlns:sodipodi="http://sodipodi.sourceforge.net/DTD/sodipodi-0.dtd"
   xmlns:inkscape="http://www.inkscape.org/namespaces/inkscape"
   width="48"
   height="48"
   viewBox="0 0 48.000001 48.000001"
   id="svg2"
   version="1.1"
   inkscape:version="0.91 r13725"
   sodipodi:docname="chip.svg">
  <defs
     id="defs4" />
  <sodipodi:namedview
     id="base"
     pagecolor="#ffffff"
     bordercolor="#666666"
     borderopacity="1.0"
     inkscape:pageopacity="0.0"
     inkscape:pageshadow="2"
     inkscape:zoom="7.68"
     inkscape:cx="44.804292"
     inkscape:cy="35.11086"
     inkscape:document-units="px"
     inkscape:current-layer="layer1"
     showgrid="false"
     inkscape:window-width="1920"
     inkscape:window-height="1017"
     inkscape:window-x="-8"
     inkscape:window-y="-8"
     inkscape:window-maximized="1"
     units="px" />
  <metadata
     id="metadata7">
    <rdf:RDF>
      <cc:Work
         rdf:about="">
        <dc:format>image/svg+xml</dc:format>
        <dc:type
           rdf:resource="http://purl.org/dc/dcmitype/StillImage" />
        <dc:title></dc:title>
      </cc:Work>
    </rdf:RDF>
  </metadata>
  <g
     inkscape:label="Layer 1"
     inkscape:groupmode="layer"
     id="layer1"
     transform="translate(0,-1004.3622)">
    <rect
       style="opacity:1;fill:#2ba342;fill-opacity:1;fill-rule:evenodd;stroke:#ffd42a;stroke-width:1.77951217;stroke-linecap:butt;stroke-miterlimit:4;stroke-dasharray:none;stroke-opacity:1"
       id="rect4150"
       width="40.299927"
       height="40.299931"
       x="3.6085968"
       y="1008.434"
       ry="4.8167248" />
    <path
       style="opacity:1;fill:#ffd42a;fill-opacity:1;fill-rule:evenodd;stroke:none;stroke-width:10;stroke-linecap:butt;stroke-miterlimit:4;stroke-dasharray:none;stroke-opacity:1"
       d="m 20.851158,1028.4251 -0.0407,2.5767 0.12403,0.3723 0.39882,0.1434 6.6919,0.056 6.56359,-0.072 c 0,0 0.34375,-0.1551 0.44693,-0.2669 0.10318,-0.1119 0.17213,-0.4043 0.17213,-0.4043 0,0 0.0343,-8.5115 -0.047,-12.8629 -0.004,-0.216 -0.34727,-0.5131 -0.34727,-0.5131 -0.10781,-0.28 -0.55434,-0.2486 -0.85441,-0.247 -6.0885,0 -12.177,0.01 -18.26549,0.01 l -2.40234,-0.053 c 0,0 -0.2953,0.1246 -0.3892,0.2299 -0.0939,0.1053 -0.17418,0.4019 -0.17418,0.4019 l 0.0781,6.2342 c 0,0 -0.042,0.4468 0.0391,0.6471 0.0916,0.2263 0.26334,0.4376 0.47682,0.5562 0.32266,0.1792 0.8805,-0.011 1.09454,0.1677 0,0 0.67316,0.3702 0.93594,0.6425 0.28939,0.2998 0.57493,0.6495 0.67047,1.0551 0.0857,0.3639 -0.11578,1.1156 -0.11578,1.1156 0,0 -0.56271,1.1077 -1.05787,1.4375 -0.41492,0.2764 -1.45315,0.3537 -1.45315,0.3537 l -0.55506,0.6102 -0.0388,1.6972 -0.0423,6.7557 0.62388,0.5342 c 0.70189,0.01 1.40377,0.013 2.10566,0.02 l 0.51105,-0.4687 0.0574,-1.0432 0.48081,-0.8013 1.02514,-0.8618 c 0,0 3.21794,-0.502 4.72317,-0.04 0.37832,0.1161 0.69527,0.3965 0.97725,0.6741 0.21427,0.2109 0.41005,0.4561 0.52365,0.7345 0.15531,0.3806 -5.6e-4,0.8547 0.191,1.2184 0.11834,0.2246 0.31915,0.4261 0.55389,0.5228 0.16127,0.066 0.52311,0.013 0.52311,0.013 l 7.04451,0.083 c 0.44374,0.01 -0.0457,0.2697 -0.0457,0.6423 0,0.3726 0.5197,0.8203 0.0759,0.8237 l -7.01555,0.048 c 0,0 -0.6732,0.025 -0.97978,-0.091 -0.44618,-0.1697 -0.8228,-0.5043 -1.15374,-0.8484 -0.24051,-0.25 -0.46107,-0.5371 -0.58362,-0.8617 -0.0993,-0.263 0.0163,-0.5838 -0.10662,-0.8366 -0.11865,-0.244 -0.32247,-0.472 -0.57154,-0.5797 -0.14212,-0.062 -0.30957,-0.01 -0.4644,-0.011 -0.77912,-0.011 -2.33757,-0.011 -2.33757,-0.011 0,0 -0.398,-0.016 -0.58192,0.047 -0.27309,0.094 -0.56722,0.2352 -0.72274,0.4787 -0.21307,0.3337 -0.01,0.8162 -0.1784,1.1743 -0.28335,0.601 -0.79986,1.0246 -1.39916,1.3116 -0.36393,0.1743 -0.52482,0.2462 -1.13945,0.2372 -0.61462,-0.01 -1.24212,0.033 -1.84387,-0.096 -0.36982,-0.079 -0.76873,-0.167 -1.05762,-0.4112 -0.19782,-0.1672 -0.42189,-0.4969 -0.54669,-0.7926 -0.21365,-0.5062 -0.31643,-1.0204 -0.31933,-1.6171 -0.0292,-6.0251 0.0515,-4.8607 0.0425,-7.8287 l 0.29691,-0.6219 c 0.099,-0.2072 0.15359,-0.4423 0.29692,-0.6218 0.23934,-0.2998 0.54794,-0.5681 0.90294,-0.7133 0.45243,-0.1852 1.04989,0.1108 1.45795,-0.1584 0.22277,-0.1469 0.39542,-0.4308 0.39276,-0.6976 -0.002,-0.2431 -0.1764,-0.4818 -0.37038,-0.6283 -0.23344,-0.1763 -0.56813,-0.1406 -0.84912,-0.2221 -0.39485,-0.1145 -0.84148,-0.1343 -1.17508,-0.3746 -0.44069,-0.3174 -0.96125,-1.3155 -0.96125,-1.3155 l 0.0522,-7.6235 c 0,0 0.36058,-0.88 0.69314,-1.2011 0.32198,-0.3109 1.18579,-0.6298 1.18579,-0.6298 l 21.79922,0.054 c 0,0 0.90482,0.3335 1.23439,0.6855 0.24901,0.266 0.50736,1.0368 0.50736,1.0368 l 0.1594,13.2265 c 0,0 -0.0845,1.1404 -0.40199,1.5824 -0.29113,0.4053 -1.25732,0.8126 -1.25732,0.8126 -0.37271,0.2408 -13.81854,0.1097 -13.81854,0.1097 -0.0372,0.028 -0.43965,-0.014 -0.75555,-0.1708 -0.3159,-0.1567 -0.54527,-0.4283 -0.78595,-0.5847 l -0.39476,-0.9063 c -0.45848,-1.0525 -0.19163,-1.7888 -0.11107,-3.1602 0,0 1.48949,-0.068 1.53911,0.031 z"
       id="rect4173"
       inkscape:connector-curvature="0"
       sodipodi:nodetypes="ccccccscsscccsccsasascsccccccccccssssscssscsaaasscsssssasascssssssssccsccsccsssscsssc" />
    <rect
       style="opacity:1;fill:#ffd42a;fill-opacity:1;fill-rule:evenodd;stroke:none;stroke-width:10;stroke-linecap:butt;stroke-miterlimit:4;stroke-dasharray:none;stroke-opacity:1"
       id="rect4139"
       width="1.7237055"
       height="6.0480905"
       x="28.672501"
       y="1024.5781"
       ry="0.84543192" />
    <path
       style="color:#000000;clip-rule:nonzero;display:inline;overflow:visible;visibility:visible;opacity:1;isolation:auto;mix-blend-mode:normal;color-interpolation:sRGB;color-interpolation-filters:linearRGB;solid-color:#000000;solid-opacity:1;fill:#ff2b00;fill-opacity:1;fill-rule:nonzero;stroke:none;stroke-width:2;stroke-linecap:butt;stroke-linejoin:miter;stroke-miterlimit:4;stroke-dasharray:none;stroke-dashoffset:0;stroke-opacity:1;color-rendering:auto;image-rendering:auto;shape-rendering:auto;text-rendering:auto;enable-background:accumulate"
       d="m 19.955738,1023.5495 a 2.3946784,2.3946785 0 0 0 -2.39469,2.3947 2.3946784,2.3946785 0 0 0 2.39469,2.3947 2.3946784,2.3946785 0 0 0 2.39451,-2.3947 2.3946784,2.3946785 0 0 0 -2.39451,-2.3947 z m 0,1.4634 a 0.93126384,0.93126388 0 0 1 0.9311,0.9313 0.93126384,0.93126388 0 0 1 -0.9311,0.9313 0.93126384,0.93126388 0 0 1 -0.93128,-0.9313 0.93126384,0.93126388 0 0 1 0.93128,-0.9313 z"
       id="path4140"
       inkscape:connector-curvature="0" />
    <path
       inkscape:connector-curvature="0"
       id="path4145"
       d="m 29.534458,1020.3566 a 2.3946784,2.3946785 0 0 0 -2.3947,2.3947 2.3946784,2.3946785 0 0 0 2.3947,2.3947 2.3946784,2.3946785 0 0 0 2.39451,-2.3947 2.3946784,2.3946785 0 0 0 -2.39451,-2.3947 z m 0,1.4634 a 0.93126384,0.93126388 0 0 1 0.93109,0.9313 0.93126384,0.93126388 0 0 1 -0.93109,0.9313 0.93126384,0.93126388 0 0 1 -0.93129,-0.9313 0.93126384,0.93126388 0 0 1 0.93129,-0.9313 z"
       style="color:#000000;clip-rule:nonzero;display:inline;overflow:visible;visibility:visible;opacity:1;isolation:auto;mix-blend-mode:normal;color-interpolation:sRGB;color-interpolation-filters:linearRGB;solid-color:#000000;solid-opacity:1;fill:#ff2b00;fill-opacity:1;fill-rule:nonzero;stroke:none;stroke-width:2;stroke-linecap:butt;stroke-linejoin:miter;stroke-miterlimit:4;stroke-dasharray:none;stroke-dashoffset:0;stroke-opacity:1;color-rendering:auto;image-rendering:auto;shape-rendering:auto;text-rendering:auto;enable-background:accumulate" />
    <path
       style="color:#000000;clip-rule:nonzero;display:inline;overflow:visible;visibility:visible;opacity:1;isolation:auto;mix-blend-mode:normal;color-interpolation:sRGB;color-interpolation-filters:linearRGB;solid-color:#000000;solid-opacity:1;fill:#ff2b00;fill-opacity:1;fill-rule:nonzero;stroke:none;stroke-width:2;stroke-linecap:butt;stroke-linejoin:miter;stroke-miterlimit:4;stroke-dasharray:none;stroke-dashoffset:0;stroke-opacity:1;color-rendering:auto;image-rendering:auto;shape-rendering:auto;text-rendering:auto;enable-background:accumulate"
       d="m 29.534458,1029.9885 a 2.3946784,2.3946785 0 0 0 -2.3947,2.3947 2.3946784,2.3946785 0 0 0 2.3947,2.3947 2.3946784,2.3946785 0 0 0 2.39451,-2.3947 2.3946784,2.3946785 0 0 0 -2.39451,-2.3947 z m 0,1.4634 a 0.93126384,0.93126388 0 0 1 0.93109,0.9313 0.93126384,0.93126388 0 0 1 -0.93109,0.9313 0.93126384,0.93126388 0 0 1 -0.93129,-0.9313 0.93126384,0.93126388 0 0 1 0.93129,-0.9313 z"
       id="path4147"
       inkscape:connector-curvature="0" />
    <path
       inkscape:connector-curvature="0"
       id="path4149"
       d="m 34.323808,1037.9708 a 2.3946784,2.3946785 0 0 0 -2.39469,2.3947 2.3946784,2.3946785 0 0 0 2.39469,2.3947 2.3946784,2.3946785 0 0 0 2.39451,-2.3947 2.3946784,2.3946785 0 0 0 -2.39451,-2.3947 z m 0,1.4634 a 0.93126384,0.93126388 0 0 1 0.9311,0.9313 0.93126384,0.93126388 0 0 1 -0.9311,0.9313 0.93126384,0.93126388 0 0 1 -0.93128,-0.9313 0.93126384,0.93126388 0 0 1 0.93128,-0.9313 z"
       style="color:#000000;clip-rule:nonzero;display:inline;overflow:visible;visibility:visible;opacity:1;isolation:auto;mix-blend-mode:normal;color-interpolation:sRGB;color-interpolation-filters:linearRGB;solid-color:#000000;solid-opacity:1;fill:#ff2b00;fill-opacity:1;fill-rule:nonzero;stroke:none;stroke-width:2;stroke-linecap:butt;stroke-linejoin:miter;stroke-miterlimit:4;stroke-dasharray:none;stroke-dashoffset:0;stroke-opacity:1;color-rendering:auto;image-rendering:auto;shape-rendering:auto;text-rendering:auto;enable-background:accumulate" />
    <ellipse
       style="color:#000000;clip-rule:nonzero;display:inline;overflow:visible;visibility:visible;opacity:1;isolation:auto;mix-blend-mode:normal;color-interpolation:sRGB;color-interpolation-filters:linearRGB;solid-color:#000000;solid-opacity:1;fill:#000000;fill-opacity:1;fill-rule:nonzero;stroke:none;stroke-width:2;stroke-linecap:butt;stroke-linejoin:miter;stroke-miterlimit:4;stroke-dasharray:none;stroke-dashoffset:0;stroke-opacity:1;color-rendering:auto;image-rendering:auto;shape-rendering:auto;text-rendering:auto;enable-background:accumulate"
       id="path4151"
       cx="8.7804871"
       cy="1013.2258"
       rx="0.8514412"
       ry="0.85144126" />
    <ellipse
       cy="1013.2258"
       cx="39.219528"
       id="circle4153"
       style="color:#000000;clip-rule:nonzero;display:inline;overflow:visible;visibility:visible;opacity:1;isolation:auto;mix-blend-mode:normal;color-interpolation:sRGB;color-interpolation-filters:linearRGB;solid-color:#000000;solid-opacity:1;fill:#000000;fill-opacity:1;fill-rule:nonzero;stroke:none;stroke-width:2;stroke-linecap:butt;stroke-linejoin:miter;stroke-miterlimit:4;stroke-dasharray:none;stroke-dashoffset:0;stroke-opacity:1;color-rendering:auto;image-rendering:auto;shape-rendering:auto;text-rendering:auto;enable-background:accumulate"
       rx="0.8514412"
       ry="0.85144126" />
    <ellipse
       style="color:#000000;clip-rule:nonzero;display:inline;overflow:visible;visibility:visible;opacity:1;isolation:auto;mix-blend-mode:normal;color-interpolation:sRGB;color-interpolation-filters:linearRGB;solid-color:#000000;solid-opacity:1;fill:#000000;fill-opacity:1;fill-rule:nonzero;stroke:none;stroke-width:2;stroke-linecap:butt;stroke-linejoin:miter;stroke-miterlimit:4;stroke-dasharray:none;stroke-dashoffset:0;stroke-opacity:1;color-rendering:auto;image-rendering:auto;shape-rendering:auto;text-rendering:auto;enable-background:accumulate"
       id="circle4155"
       cx="39.219528"
       cy="1043.5051"
       rx="0.8514412"
       ry="0.85144126" />
    <ellipse
       cy="1043.5583"
       cx="8.8869171"
       id="circle4157"
       style="color:#000000;clip-rule:nonzero;display:inline;overflow:visible;visibility:visible;opacity:1;isolation:auto;mix-blend-mode:normal;color-interpolation:sRGB;color-interpolation-filters:linearRGB;solid-color:#000000;solid-opacity:1;fill:#000000;fill-opacity:1;fill-rule:nonzero;stroke:none;stroke-width:2;stroke-linecap:butt;stroke-linejoin:miter;stroke-miterlimit:4;stroke-dasharray:none;stroke-dashoffset:0;stroke-opacity:1;color-rendering:auto;image-rendering:auto;shape-rendering:auto;text-rendering:auto;enable-background:accumulate"
       rx="0.8514412"
       ry="0.85144126" />
    <rect
       style="opacity:1;fill:#ffd42a;fill-opacity:1;fill-rule:evenodd;stroke:none;stroke-width:10;stroke-linecap:butt;stroke-miterlimit:4;stroke-dasharray:none;stroke-opacity:1"
       id="rect4159"
       width="4.0443459"
       height="1.5964522"
       x="43.955643"
       y="1015.6204"
       ry="0.79822612" />
    <rect
       ry="0.79822612"
       y="-36.795029"
       x="1004.3622"
       height="1.5964522"
       width="4.0443459"
       id="rect4174"
       style="opacity:1;fill:#ffd42a;fill-opacity:1;fill-rule:evenodd;stroke:none;stroke-width:10;stroke-linecap:butt;stroke-miterlimit:4;stroke-dasharray:none;stroke-opacity:1"
       transform="matrix(0,1,-1,0,0,0)" />
    <rect
       style="opacity:1;fill:#ffd42a;fill-opacity:1;fill-rule:evenodd;stroke:none;stroke-width:10;stroke-linecap:butt;stroke-miterlimit:4;stroke-dasharray:none;stroke-opacity:1"
       id="rect4176"
       width="4.0443459"
       height="1.5964522"
       x="43.955643"
       y="1039.5969"
       ry="0.79822612" />
    <rect
       ry="0.79822612"
       y="1034.8016"
       x="43.955643"
       height="1.5964522"
       width="4.0443459"
       id="rect4178"
       style="opacity:1;fill:#ffd42a;fill-opacity:1;fill-rule:evenodd;stroke:none;stroke-width:10;stroke-linecap:butt;stroke-miterlimit:4;stroke-dasharray:none;stroke-opacity:1" />
    <rect
       style="opacity:1;fill:#ffd42a;fill-opacity:1;fill-rule:evenodd;stroke:none;stroke-width:10;stroke-linecap:butt;stroke-miterlimit:4;stroke-dasharray:none;stroke-opacity:1"
       id="rect4180"
       width="4.0443459"
       height="1.5964522"
       x="43.955643"
       y="1030.0063"
       ry="0.79822612" />
    <rect
       ry="0.79822612"
       y="1025.2111"
       x="43.955643"
       height="1.5964522"
       width="4.0443459"
       id="rect4182"
       style="opacity:1;fill:#ffd42a;fill-opacity:1;fill-rule:evenodd;stroke:none;stroke-width:10;stroke-linecap:butt;stroke-miterlimit:4;stroke-dasharray:none;stroke-opacity:1" />
    <rect
       style="opacity:1;fill:#ffd42a;fill-opacity:1;fill-rule:evenodd;stroke:none;stroke-width:10;stroke-linecap:butt;stroke-miterlimit:4;stroke-dasharray:none;stroke-opacity:1"
       id="rect4184"
       width="4.0443459"
       height="1.5964522"
       x="43.955643"
       y="1020.4157"
       ry="0.79822612" />
    <rect
       transform="matrix(0,1,-1,0,0,0)"
       style="opacity:1;fill:#ffd42a;fill-opacity:1;fill-rule:evenodd;stroke:none;stroke-width:10;stroke-linecap:butt;stroke-miterlimit:4;stroke-dasharray:none;stroke-opacity:1"
       id="rect4186"
       width="4.0443459"
       height="1.5964522"
       x="1004.3622"
       y="-31.994186"
       ry="0.79822612" />
    <rect
       ry="0.79822612"
       y="-27.193314"
       x="1004.3622"
       height="1.5964522"
       width="4.0443459"
       id="rect4188"
       style="opacity:1;fill:#ffd42a;fill-opacity:1;fill-rule:evenodd;stroke:none;stroke-width:10;stroke-linecap:butt;stroke-miterlimit:4;stroke-dasharray:none;stroke-opacity:1"
       transform="matrix(0,1,-1,0,0,0)" />
    <rect
       transform="matrix(0,1,-1,0,0,0)"
       style="opacity:1;fill:#ffd42a;fill-opacity:1;fill-rule:evenodd;stroke:none;stroke-width:10;stroke-linecap:butt;stroke-miterlimit:4;stroke-dasharray:none;stroke-opacity:1"
       id="rect4190"
       width="4.0443459"
       height="1.5964522"
       x="1004.3622"
       y="-22.392471"
       ry="0.79822612" />
    <rect
       ry="0.79822612"
       y="-17.591629"
       x="1004.3622"
       height="1.5964522"
       width="4.0443459"
       id="rect4192"
       style="opacity:1;fill:#ffd42a;fill-opacity:1;fill-rule:evenodd;stroke:none;stroke-width:10;stroke-linecap:butt;stroke-miterlimit:4;stroke-dasharray:none;stroke-opacity:1"
       transform="matrix(0,1,-1,0,0,0)" />
    <rect
       transform="matrix(0,1,-1,0,0,0)"
       style="opacity:1;fill:#ffd42a;fill-opacity:1;fill-rule:evenodd;stroke:none;stroke-width:10;stroke-linecap:butt;stroke-miterlimit:4;stroke-dasharray:none;stroke-opacity:1"
       id="rect4194"
       width="4.0443459"
       height="1.5964522"
       x="1004.3622"
       y="-12.790787"
       ry="0.79822612" />
    <rect
       transform="matrix(0,1,-1,0,0,0)"
       style="opacity:1;fill:#ffd42a;fill-opacity:1;fill-rule:evenodd;stroke:none;stroke-width:10;stroke-linecap:butt;stroke-miterlimit:4;stroke-dasharray:none;stroke-opacity:1"
       id="rect4196"
       width="4.0443459"
       height="1.5964522"
       x="1048.3179"
       y="-36.741806"
       ry="0.79822612" />
    <rect
       ry="0.79822612"
       y="-31.940964"
       x="1048.3179"
       height="1.5964522"
       width="4.0443459"
       id="rect4198"
       style="opacity:1;fill:#ffd42a;fill-opacity:1;fill-rule:evenodd;stroke:none;stroke-width:10;stroke-linecap:butt;stroke-miterlimit:4;stroke-dasharray:none;stroke-opacity:1"
       transform="matrix(0,1,-1,0,0,0)" />
    <rect
       transform="matrix(0,1,-1,0,0,0)"
       style="opacity:1;fill:#ffd42a;fill-opacity:1;fill-rule:evenodd;stroke:none;stroke-width:10;stroke-linecap:butt;stroke-miterlimit:4;stroke-dasharray:none;stroke-opacity:1"
       id="rect4200"
       width="4.0443459"
       height="1.5964522"
       x="1048.3179"
       y="-27.140121"
       ry="0.79822612" />
    <rect
       ry="0.79822612"
       y="-22.339264"
       x="1048.3179"
       height="1.5964522"
       width="4.0443459"
       id="rect4202"
       style="opacity:1;fill:#ffd42a;fill-opacity:1;fill-rule:evenodd;stroke:none;stroke-width:10;stroke-linecap:butt;stroke-miterlimit:4;stroke-dasharray:none;stroke-opacity:1"
       transform="matrix(0,1,-1,0,0,0)" />
    <rect
       transform="matrix(0,1,-1,0,0,0)"
       style="opacity:1;fill:#ffd42a;fill-opacity:1;fill-rule:evenodd;stroke:none;stroke-width:10;stroke-linecap:butt;stroke-miterlimit:4;stroke-dasharray:none;stroke-opacity:1"
       id="rect4204"
       width="4.0443459"
       height="1.5964522"
       x="1048.3179"
       y="-17.538422"
       ry="0.79822612" />
    <rect
       ry="0.79822612"
       y="-12.737564"
       x="1048.3179"
       height="1.5964522"
       width="4.0443459"
       id="rect4206"
       style="opacity:1;fill:#ffd42a;fill-opacity:1;fill-rule:evenodd;stroke:none;stroke-width:10;stroke-linecap:butt;stroke-miterlimit:4;stroke-dasharray:none;stroke-opacity:1"
       transform="matrix(0,1,-1,0,0,0)" />
    <rect
       ry="0.79822612"
       y="1015.5672"
       x="0"
       height="1.5964522"
       width="4.0443459"
       id="rect4208"
       style="opacity:1;fill:#ffd42a;fill-opacity:1;fill-rule:evenodd;stroke:none;stroke-width:10;stroke-linecap:butt;stroke-miterlimit:4;stroke-dasharray:none;stroke-opacity:1" />
    <rect
       ry="0.79822612"
       y="1039.5438"
       x="0"
       height="1.5964522"
       width="4.0443459"
       id="rect4210"
       style="opacity:1;fill:#ffd42a;fill-opacity:1;fill-rule:evenodd;stroke:none;stroke-width:10;stroke-linecap:butt;stroke-miterlimit:4;stroke-dasharray:none;stroke-opacity:1" />
    <rect
       style="opacity:1;fill:#ffd42a;fill-opacity:1;fill-rule:evenodd;stroke:none;stroke-width:10;stroke-linecap:butt;stroke-miterlimit:4;stroke-dasharray:none;stroke-opacity:1"
       id="rect4212"
       width="4.0443459"
       height="1.5964522"
       x="0"
       y="1034.7484"
       ry="0.79822612" />
    <rect
       ry="0.79822612"
       y="1029.9531"
       x="0"
       height="1.5964522"
       width="4.0443459"
       id="rect4214"
       style="opacity:1;fill:#ffd42a;fill-opacity:1;fill-rule:evenodd;stroke:none;stroke-width:10;stroke-linecap:butt;stroke-miterlimit:4;stroke-dasharray:none;stroke-opacity:1" />
    <rect
       style="opacity:1;fill:#ffd42a;fill-opacity:1;fill-rule:evenodd;stroke:none;stroke-width:10;stroke-linecap:butt;stroke-miterlimit:4;stroke-dasharray:none;stroke-opacity:1"
       id="rect4216"
       width="4.0443459"
       height="1.5964522"
       x="0"
       y="1025.1578"
       ry="0.79822612" />
    <rect
       ry="0.79822612"
       y="1020.3625"
       x="0"
       height="1.5964522"
       width="4.0443459"
       id="rect4218"
       style="opacity:1;fill:#ffd42a;fill-opacity:1;fill-rule:evenodd;stroke:none;stroke-width:10;stroke-linecap:butt;stroke-miterlimit:4;stroke-dasharray:none;stroke-opacity:1" />
  </g>
</svg>
