<?xml version="1.0" encoding="UTF-8" standalone="no"?>
<!-- Created with Inkscape (http://www.inkscape.org/) -->

<svg
   xmlns:dc="http://purl.org/dc/elements/1.1/"
   xmlns:cc="http://creativecommons.org/ns#"
   xmlns:rdf="http://www.w3.org/1999/02/22-rdf-syntax-ns#"
   xmlns:svg="http://www.w3.org/2000/svg"
   xmlns="http://www.w3.org/2000/svg"
   xmlns:sodipodi="http://sodipodi.sourceforge.net/DTD/sodipodi-0.dtd"
   xmlns:inkscape="http://www.inkscape.org/namespaces/inkscape"
   id="svg2"
   version="1.1"
   inkscape:version="0.91 r13725"
   width="40"
   height="48"
   viewBox="0 0 40 48"
   sodipodi:docname="convertiplane.svg">
  <metadata
     id="metadata8">
    <rdf:RDF>
      <cc:Work
         rdf:about="">
        <dc:format>image/svg+xml</dc:format>
        <dc:type
           rdf:resource="http://purl.org/dc/dcmitype/StillImage" />
        <dc:title />
      </cc:Work>
    </rdf:RDF>
  </metadata>
  <defs
     id="defs6" />
  <sodipodi:namedview
     pagecolor="#ffffff"
     bordercolor="#666666"
     borderopacity="1"
     objecttolerance="10"
     gridtolerance="10"
     guidetolerance="10"
     inkscape:pageopacity="0"
     inkscape:pageshadow="2"
     inkscape:window-width="1920"
     inkscape:window-height="1017"
     id="namedview4"
     showgrid="false"
     inkscape:zoom="3.2809755"
     inkscape:cx="-102.74663"
     inkscape:cy="18.616979"
     inkscape:window-x="-8"
     inkscape:window-y="-8"
     inkscape:window-maximized="1"
     inkscape:current-layer="svg2" />
  <path
     style="opacity:1;fill:#ffcc00;fill-opacity:1;fill-rule:evenodd;stroke:#000000;stroke-width:0.685;stroke-linecap:butt;stroke-miterlimit:4;stroke-dasharray:none;stroke-opacity:1"
     d="m 23.76794,13.534914 1.12538,0.64079 0.10355,0.58277 1.05463,-0.99145 c -0.017,0.47273 -0.0341,0.94547 -0.0511,1.4182 0.0328,0.4852 0.0656,0.9704 0.0985,1.4556 0.21982,0.64726 0.43963,1.29452 0.65945,1.94178 0.51901,0.65973 1.03801,1.31946 1.55702,1.97918 0.71597,0.41789 1.43195,0.92553 2.14793,1.25366 0.70849,0.17852 1.35714,0.29721 2.06563,0.47574 0.53147,-0.0135 1.21253,-0.0269 1.74401,-0.0404 0.34448,-0.11318 0.5992,-0.16653 0.94368,-0.27971 l -5.8152,2.65721 -2.57964,0.0732 -1.15864,-1.53763 -0.90728,-1.35914 -0.7433,-0.17849 z"
     id="rect4153"
     inkscape:connector-curvature="0"
     sodipodi:nodetypes="cccccccccccccccccc" />
  <circle
     style="color:#000000;clip-rule:nonzero;display:inline;overflow:visible;visibility:visible;opacity:1;isolation:auto;mix-blend-mode:normal;color-interpolation:sRGB;color-interpolation-filters:linearRGB;solid-color:#000000;solid-opacity:1;fill:#ffcc00;fill-opacity:1;fill-rule:nonzero;stroke:#000000;stroke-width:0.685;stroke-linecap:butt;stroke-linejoin:miter;stroke-miterlimit:4;stroke-dasharray:none;stroke-dashoffset:0;stroke-opacity:1;color-rendering:auto;image-rendering:auto;shape-rendering:auto;text-rendering:auto;enable-background:accumulate"
     id="path4138"
     cx="32.958549"
     cy="15.322377"
     r="6.9561944" />
  <circle
     r="6.3952107"
     cy="15.210164"
     cx="32.92115"
     id="circle4140"
     style="color:#000000;clip-rule:nonzero;display:inline;overflow:visible;visibility:visible;opacity:1;isolation:auto;mix-blend-mode:normal;color-interpolation:sRGB;color-interpolation-filters:linearRGB;solid-color:#000000;solid-opacity:1;fill:#2b2200;fill-opacity:1;fill-rule:nonzero;stroke:#000000;stroke-width:0.685;stroke-linecap:butt;stroke-linejoin:miter;stroke-miterlimit:4;stroke-dasharray:none;stroke-dashoffset:0;stroke-opacity:1;color-rendering:auto;image-rendering:auto;shape-rendering:auto;text-rendering:auto;enable-background:accumulate" />
  <path
     style="opacity:1;fill:#ffcc00;fill-opacity:1;fill-rule:evenodd;stroke:#000000;stroke-width:0.685;stroke-linecap:butt;stroke-miterlimit:4;stroke-dasharray:none;stroke-opacity:1"
     d="m 19.58426,4.1683226 -0.008,0.59022 c -0.58213,0.19678 -1.0331,0.52479 -1.45125,0.98393 -0.17559,0.32796 -0.18721,0.62318 -0.13323,0.98393 l -0.26447,0.16388 -0.002,0.42635 c -0.33334,0.1969 -0.55239,0.36122 -0.65701,0.68881 l -2.29662,0 -0.054,2.5729104 c 1.42815,-0.21447 1.65955,1.328831 1.47955,2.834711 l -0.42768,11.43644 c 0.69265,0.80777 1.31043,1.12926 2.63886,1.07686 l 1.42543,0.12474 0,0.0248 0.14173,-0.0123 0.14173,0.0123 0,-0.0248 1.42543,-0.12474 c 1.32843,0.0524 1.94638,-0.26909 2.63903,-1.07686 l -0.42785,-11.43644 c -0.18,-1.50588 0.0514,-3.049181 1.47955,-2.834711 l -0.0538,-2.5729104 -2.29678,0 c -0.10463,-0.32759 -0.3235,-0.49191 -0.65684,-0.68881 l -0.002,-0.42635 -0.2643,-0.16388 c 0.054,-0.36075 0.0424,-0.65597 -0.13323,-0.98393 -0.41815,-0.45914 -0.86912,-0.78715 -1.45125,-0.98393 l -0.008,-0.59022 -0.24964,0 -0.28329,0 -0.24965,0 z"
     id="rect4183"
     inkscape:connector-curvature="0" />
  <path
     style="opacity:1;fill:#ffcc00;fill-opacity:1;fill-rule:evenodd;stroke:#000000;stroke-width:0.685;stroke-linecap:butt;stroke-miterlimit:4;stroke-dasharray:none;stroke-opacity:1"
     d="m 17.53979,25.810444 0.44867,8.3774 -0.48614,-0.0373 0,4.41303 0.84154,1.70156 0.61703,0.0188 0.0187,0.54226 0.73978,0.0521 0,0.0413 0.29394,-0.0206 0.29395,0.0206 0,-0.0413 0.73978,-0.0521 0.0187,-0.54226 0.61721,-0.0188 0.84137,-1.70156 0,-4.41303 -0.48614,0.0373 0.44883,-8.3774 -2.1797,0.26926 -0.61781,0.0598 z"
     id="rect4188"
     inkscape:connector-curvature="0"
     sodipodi:nodetypes="cccccccccccccccccccccc" />
  <path
     style="color:#000000;clip-rule:nonzero;display:inline;overflow:visible;visibility:visible;opacity:1;isolation:auto;mix-blend-mode:normal;color-interpolation:sRGB;color-interpolation-filters:linearRGB;solid-color:#000000;solid-opacity:1;fill:#ffcc00;fill-opacity:1;fill-rule:nonzero;stroke:#000000;stroke-width:0.685;stroke-linecap:butt;stroke-linejoin:miter;stroke-miterlimit:4;stroke-dasharray:none;stroke-dashoffset:0;stroke-opacity:1;color-rendering:auto;image-rendering:auto;shape-rendering:auto;text-rendering:auto;enable-background:accumulate"
     d="m 18.76471,1.0198426 0,0.95112 0.002,0 a 1.5414097,0.9838786 0 0 0 -0.31061,0.59039 1.5414097,0.9838786 0 0 0 0.15389,0.42635 l -0.01,0 0,1.21343 1.44309,0 1.36431,0 0,-1.21343 -0.0231,0 a 1.5414097,0.9838786 0 0 0 0.15438,-0.42635 1.5414097,0.9838786 0 0 0 -0.31026,-0.59039 l 0.015,0 0,-0.95112 -0.65584,0 0,0.63286 a 1.5414097,0.9838786 0 0 0 -0.5904,-0.0753 1.5414097,0.9838786 0 0 0 -0.57723,0.0721 l 0,-0.6297 -0.65584,0 z"
     id="path4156"
     inkscape:connector-curvature="0" />
  <ellipse
     ry="1.7053895"
     rx="0.47554132"
     cy="6.2606707"
     cx="23.457785"
     id="ellipse4158"
     style="color:#000000;clip-rule:nonzero;display:inline;overflow:visible;visibility:visible;opacity:1;isolation:auto;mix-blend-mode:normal;color-interpolation:sRGB;color-interpolation-filters:linearRGB;solid-color:#000000;solid-opacity:1;fill:#ffcc00;fill-opacity:1;fill-rule:nonzero;stroke:#000000;stroke-width:0.685;stroke-linecap:butt;stroke-linejoin:miter;stroke-miterlimit:4;stroke-dasharray:none;stroke-dashoffset:0;stroke-opacity:1;color-rendering:auto;image-rendering:auto;shape-rendering:auto;text-rendering:auto;enable-background:accumulate" />
  <ellipse
     style="color:#000000;clip-rule:nonzero;display:inline;overflow:visible;visibility:visible;opacity:1;isolation:auto;mix-blend-mode:normal;color-interpolation:sRGB;color-interpolation-filters:linearRGB;solid-color:#000000;solid-opacity:1;fill:#ffcc00;fill-opacity:1;fill-rule:nonzero;stroke:#000000;stroke-width:0.685;stroke-linecap:butt;stroke-linejoin:miter;stroke-miterlimit:4;stroke-dasharray:none;stroke-dashoffset:0;stroke-opacity:1;color-rendering:auto;image-rendering:auto;shape-rendering:auto;text-rendering:auto;enable-background:accumulate"
     id="ellipse4160"
     cx="25.474737"
     cy="9.2844744"
     rx="0.39355147"
     ry="1.7053895" />
  <path
     style="opacity:1;fill:#806600;fill-opacity:1;fill-rule:evenodd;stroke:#000000;stroke-width:0.685;stroke-linecap:butt;stroke-miterlimit:4;stroke-dasharray:none;stroke-opacity:1"
     d="m 19.95848,5.8409026 0,0.0493 -0.96095,0.65584 -0.5739,1.09867 0.0163,1.29537 0.14756,0.83637 0.32808,0.8198904 0.2295,1.016571 0.52477,1.37747 0.28862,0.0525 0,0.0132 0.036,-0.007 0.0361,0.007 0,-0.0132 0.28862,-0.0525 0.52477,-1.37747 0.2295,-1.016571 0.32792,-0.8198904 0.14772,-0.83637 0.0163,-1.29537 -0.5739,-1.09867 -0.96095,-0.65584 0,-0.0493 -0.0361,0.0247 -0.036,-0.0247 z"
     id="rect4162"
     inkscape:connector-curvature="0" />
  <path
     style="opacity:1;fill:#806600;fill-opacity:1;fill-rule:evenodd;stroke:#000000;stroke-width:0.685;stroke-linecap:butt;stroke-miterlimit:4;stroke-dasharray:none;stroke-opacity:1"
     d="m 22.42471,20.861434 c 0.41519,-0.40765 1.57421,0.75431 1.57421,0.75431 l 0.0656,3.41078 -1.31184,-1.04947 c 0,0 -1.42286,-2.04061 -0.32796,-3.11562 z"
     id="rect4174"
     inkscape:connector-curvature="0"
     sodipodi:nodetypes="scccs" />
  <path
     style="opacity:1;fill:#ffcc00;fill-opacity:1;fill-rule:evenodd;stroke:#000000;stroke-width:0.685;stroke-linecap:butt;stroke-miterlimit:4;stroke-dasharray:none;stroke-opacity:1"
     d="m 23.99892,21.517354 0.68871,0.19678 1.03307,1.37743 -0.7379,0.36075 -1.14786,3.50917 -1.42519,-0.0512 0.0233,-1.01164 1.22007,-0.37586 0.502,-0.64513 z"
     id="rect4177"
     inkscape:connector-curvature="0"
     sodipodi:nodetypes="cccccccccc" />
  <path
     style="opacity:1;fill:#ffcc00;fill-opacity:1;fill-rule:evenodd;stroke:#000000;stroke-width:0.685;stroke-linecap:butt;stroke-miterlimit:4;stroke-dasharray:none;stroke-opacity:1"
     d="m 35.13345,9.4057326 c -0.30626,0.004 -0.59684,0.18484 -0.72462,0.48247 L 32.77055,13.704014 30.37934,10.264923 C 30.1328,9.9103326 29.65342,9.8297526 29.30448,10.084223 l -0.026,0.019 c -0.34894,0.25447 -0.4314,0.74491 -0.18486,1.099511 l 2.52111,3.62611 -4.35057,0.40087 c -0.43006,0.0396 -0.73647,0.41682 -0.68716,0.84587 l 0.004,0.0321 c 0.0493,0.42905 0.43513,0.7426 0.86519,0.70297 l 4.15522,-0.38288 -1.61446,3.76002 c -0.17038,0.39685 0.0149,0.84619 0.41552,1.00758 l 0.03,0.0122 c 0.40059,0.16139 0.86034,-0.0282 1.03073,-0.42502 l 1.63827,-3.81581 2.39104,3.43893 c 0.24654,0.35459 0.72592,0.43517 1.07487,0.1807 l 0.0261,-0.019 c 0.34895,-0.25447 0.4314,-0.74475 0.18486,-1.09934 l -2.29828,-3.30553 4.12775,-0.38038 c 0.43005,-0.0396 0.73647,-0.41698 0.68715,-0.84603 l -0.004,-0.0321 c -0.0493,-0.42906 -0.4353,-0.74244 -0.86535,-0.70281 l -4.30761,0.39703 1.76685,-4.115251 c 0.17038,-0.39684 -0.0149,-0.8463504 -0.41553,-1.0077404 l -0.03,-0.012 c -0.10015,-0.0403 -0.20385,-0.0587 -0.30594,-0.0575 z"
     id="rect4147"
     inkscape:connector-curvature="0" />
  <circle
     style="color:#000000;clip-rule:nonzero;display:inline;overflow:visible;visibility:visible;opacity:1;isolation:auto;mix-blend-mode:normal;color-interpolation:sRGB;color-interpolation-filters:linearRGB;solid-color:#000000;solid-opacity:1;fill:#2b2200;fill-opacity:1;fill-rule:nonzero;stroke:#000000;stroke-width:0.685;stroke-linecap:butt;stroke-linejoin:miter;stroke-miterlimit:4;stroke-dasharray:none;stroke-dashoffset:0;stroke-opacity:1;color-rendering:auto;image-rendering:auto;shape-rendering:auto;text-rendering:auto;enable-background:accumulate"
     id="path4145"
     cx="32.853828"
     cy="15.515706"
     r="0.95108259" />
  <rect
     style="opacity:1;fill:#806600;fill-opacity:1;fill-rule:evenodd;stroke:#000000;stroke-width:0.685;stroke-linecap:butt;stroke-miterlimit:4;stroke-dasharray:none;stroke-opacity:1"
     id="rect4186"
     width="2.8423157"
     height="4.9740524"
     x="18.672155"
     y="26.953419" />
  <path
     style="opacity:1;fill:#ffcc00;fill-opacity:1;fill-rule:evenodd;stroke:#000000;stroke-width:0.685;stroke-linecap:butt;stroke-miterlimit:4;stroke-dasharray:none;stroke-opacity:1"
     d="m 18.55997,40.753614 1.47725,0.23935 1.47726,-0.23935 0,5.60984 c -0.98484,-0.48619 -1.93228,-0.41139 -2.95451,0 z"
     id="rect4191"
     inkscape:connector-curvature="0"
     sodipodi:nodetypes="cccccc" />
  <path
     style="opacity:1;fill:#ffcc00;fill-opacity:1;fill-rule:evenodd;stroke:#000000;stroke-width:0.685;stroke-linecap:butt;stroke-miterlimit:4;stroke-dasharray:none;stroke-opacity:1"
     d="m 21.47708,40.791014 3.2537,0 2.31873,1.23417 -0.14959,3.47809 0.33659,0.82278 -5.75943,0 z"
     id="rect4194"
     inkscape:connector-curvature="0"
     sodipodi:nodetypes="ccccccc" />
  <path
     style="opacity:1;fill:#ffcc00;fill-opacity:1;fill-rule:evenodd;stroke:#000000;stroke-width:0.685;stroke-linecap:butt;stroke-miterlimit:4;stroke-dasharray:none;stroke-opacity:1"
     d="m 26.97472,41.165004 1.34636,1.04717 -0.1496,5.49764 -1.23416,-2.01954 z"
     id="rect4197"
     inkscape:connector-curvature="0"
     sodipodi:nodetypes="ccccc" />
  <path
     style="fill:none;fill-rule:evenodd;stroke:#000000;stroke-width:0.685;stroke-linecap:butt;stroke-linejoin:miter;stroke-miterlimit:4;stroke-dasharray:none;stroke-opacity:1"
     d="m 19.96243,3.4669226 c 0,14.8063914 0,14.8063914 0,14.8063914 l 0,0"
     id="path4224"
     inkscape:connector-curvature="0" />
  <path
     style="opacity:1;fill:#806600;fill-opacity:1;fill-rule:evenodd;stroke:#000000;stroke-width:0.685;stroke-linecap:butt;stroke-miterlimit:4;stroke-dasharray:none;stroke-opacity:1"
     d="m 19.98918,18.139374 1.58284,7.67425 -0.8363,0 -0.86621,0.23934 z"
     id="rect4180"
     inkscape:connector-curvature="0"
     sodipodi:nodetypes="ccccc" />
  <path
     style="fill:none;fill-rule:evenodd;stroke:#000000;stroke-width:0.685;stroke-linecap:butt;stroke-linejoin:miter;stroke-miterlimit:4;stroke-dasharray:none;stroke-opacity:1"
     d="m 21.55188,7.7303926 c -2.08748,-0.67866 -3.13658,-0.004 -3.14151,0"
     id="path4226"
     inkscape:connector-curvature="0"
     sodipodi:nodetypes="cc" />
  <path
     style="fill:none;fill-rule:evenodd;stroke:#000000;stroke-width:0.685;stroke-linecap:butt;stroke-linejoin:miter;stroke-miterlimit:4;stroke-dasharray:none;stroke-opacity:1"
     d="m 18.74696,3.0555326 c 0.92251,0.43632 1.77021,0.49865 2.65532,-0.0374"
     id="path4157"
     inkscape:connector-curvature="0"
     sodipodi:nodetypes="cc" />
  <path
     sodipodi:nodetypes="cccccccccccccccccc"
     inkscape:connector-curvature="0"
     id="path4155"
     d="m 16.23207,13.534914 -1.12538,0.64079 -0.10355,0.58277 -1.05463,-0.99145 c 0.0171,0.47273 0.0341,0.94547 0.0511,1.4182 -0.0328,0.4852 -0.0656,0.9704 -0.0985,1.4556 -0.21982,0.64726 -0.43963,1.29452 -0.65945,1.94178 -0.519,0.65973 -1.03801,1.31946 -1.55701,1.97918 -0.71598,0.41789 -1.43196,0.92553 -2.1479402,1.25366 -0.70849,0.17852 -1.35714,0.29721 -2.06563,0.47574 -0.53147,-0.0135 -1.21253,-0.0269 -1.744,-0.0404 C 5.3826,22.137604 5.12787,22.084254 4.78339,21.971074 l 5.81521,2.65721 2.57964,0.0732 1.15863,-1.53763 0.90728,-1.35914 0.7433,-0.17849 z"
     style="opacity:1;fill:#ffcc00;fill-opacity:1;fill-rule:evenodd;stroke:#000000;stroke-width:0.685;stroke-linecap:butt;stroke-miterlimit:4;stroke-dasharray:none;stroke-opacity:1" />
  <circle
     r="6.9561944"
     cy="15.322377"
     cx="-7.0414639"
     id="circle4157"
     style="color:#000000;clip-rule:nonzero;display:inline;overflow:visible;visibility:visible;opacity:1;isolation:auto;mix-blend-mode:normal;color-interpolation:sRGB;color-interpolation-filters:linearRGB;solid-color:#000000;solid-opacity:1;fill:#ffcc00;fill-opacity:1;fill-rule:nonzero;stroke:#000000;stroke-width:0.685;stroke-linecap:butt;stroke-linejoin:miter;stroke-miterlimit:4;stroke-dasharray:none;stroke-dashoffset:0;stroke-opacity:1;color-rendering:auto;image-rendering:auto;shape-rendering:auto;text-rendering:auto;enable-background:accumulate"
     transform="scale(-1,1)" />
  <circle
     style="color:#000000;clip-rule:nonzero;display:inline;overflow:visible;visibility:visible;opacity:1;isolation:auto;mix-blend-mode:normal;color-interpolation:sRGB;color-interpolation-filters:linearRGB;solid-color:#000000;solid-opacity:1;fill:#2b2200;fill-opacity:1;fill-rule:nonzero;stroke:#000000;stroke-width:0.685;stroke-linecap:butt;stroke-linejoin:miter;stroke-miterlimit:4;stroke-dasharray:none;stroke-dashoffset:0;stroke-opacity:1;color-rendering:auto;image-rendering:auto;shape-rendering:auto;text-rendering:auto;enable-background:accumulate"
     id="circle4159"
     cx="-7.0788631"
     cy="15.210164"
     r="6.3952107"
     transform="scale(-1,1)" />
  <ellipse
     style="color:#000000;clip-rule:nonzero;display:inline;overflow:visible;visibility:visible;opacity:1;isolation:auto;mix-blend-mode:normal;color-interpolation:sRGB;color-interpolation-filters:linearRGB;solid-color:#000000;solid-opacity:1;fill:#ffcc00;fill-opacity:1;fill-rule:nonzero;stroke:#000000;stroke-width:0.685;stroke-linecap:butt;stroke-linejoin:miter;stroke-miterlimit:4;stroke-dasharray:none;stroke-dashoffset:0;stroke-opacity:1;color-rendering:auto;image-rendering:auto;shape-rendering:auto;text-rendering:auto;enable-background:accumulate"
     id="ellipse4163"
     cx="-16.542227"
     cy="6.2606707"
     rx="0.47554132"
     ry="1.7053895"
     transform="scale(-1,1)" />
  <ellipse
     ry="1.7053895"
     rx="0.39355147"
     cy="9.2844744"
     cx="-14.525273"
     id="ellipse4165"
     style="color:#000000;clip-rule:nonzero;display:inline;overflow:visible;visibility:visible;opacity:1;isolation:auto;mix-blend-mode:normal;color-interpolation:sRGB;color-interpolation-filters:linearRGB;solid-color:#000000;solid-opacity:1;fill:#ffcc00;fill-opacity:1;fill-rule:nonzero;stroke:#000000;stroke-width:0.685;stroke-linecap:butt;stroke-linejoin:miter;stroke-miterlimit:4;stroke-dasharray:none;stroke-dashoffset:0;stroke-opacity:1;color-rendering:auto;image-rendering:auto;shape-rendering:auto;text-rendering:auto;enable-background:accumulate"
     transform="scale(-1,1)" />
  <path
     sodipodi:nodetypes="scccs"
     inkscape:connector-curvature="0"
     id="path4167"
     d="m 17.5753,20.861434 c -0.41519,-0.40765 -1.5742,0.75431 -1.5742,0.75431 l -0.0656,3.41078 1.31184,-1.04947 c 0,0 1.42286,-2.04061 0.32796,-3.11562 z"
     style="opacity:1;fill:#806600;fill-opacity:1;fill-rule:evenodd;stroke:#000000;stroke-width:0.685;stroke-linecap:butt;stroke-miterlimit:4;stroke-dasharray:none;stroke-opacity:1" />
  <path
     sodipodi:nodetypes="cccccccccc"
     inkscape:connector-curvature="0"
     id="path4169"
     d="m 16.0011,21.517354 -0.68872,0.19678 -1.03307,1.37743 0.73791,0.36075 1.14786,3.50917 1.42518,-0.0512 -0.0233,-1.01164 -1.22007,-0.37586 -0.502,-0.64513 z"
     style="opacity:1;fill:#ffcc00;fill-opacity:1;fill-rule:evenodd;stroke:#000000;stroke-width:0.685;stroke-linecap:butt;stroke-miterlimit:4;stroke-dasharray:none;stroke-opacity:1" />
  <path
     id="path4171"
     d="m 4.86656,9.4057326 c 0.30627,0.004 0.59684,0.18484 0.72463,0.48247 l 1.6382698,3.8158114 2.39121,-3.439091 c 0.24654,-0.3545904 0.7259202,-0.4351704 1.0748602,-0.1807 l 0.026,0.019 c 0.34894,0.25447 0.4314,0.74491 0.18486,1.099511 l -2.5211102,3.62611 4.3505802,0.40087 c 0.43005,0.0396 0.73646,0.41682 0.68715,0.84587 l -0.004,0.0321 c -0.0493,0.42905 -0.43513,0.7426 -0.86518,0.70297 l -4.1552302,-0.38288 1.6144602,3.76002 c 0.17039,0.39685 -0.0149,0.84619 -0.4155202,1.00758 l -0.03,0.0122 c -0.40058,0.16139 -0.86034,-0.0282 -1.03073,-0.42502 l -1.63827,-3.81581 -2.3910398,3.43893 c -0.24654,0.35459 -0.72592,0.43517 -1.07486,0.1807 l -0.0262,-0.019 c -0.34894,-0.25447 -0.4314,-0.74475 -0.18486,-1.09934 l 2.29828,-3.30553 -4.12775,-0.38038 c -0.43004999,-0.0396 -0.73645999,-0.41698 -0.68714999,-0.84603 l 0.004,-0.0321 c 0.0493,-0.42906 0.43529999,-0.74244 0.86534999,-0.70281 L 5.8819198,14.598214 4.11507,10.482963 C 3.94469,10.086123 4.12997,9.6366126 4.5306,9.4752226 l 0.03,-0.012 c 0.10015,-0.0403 0.20385,-0.0587 0.30594,-0.0575 z"
     style="opacity:1;fill:#ffcc00;fill-opacity:1;fill-rule:evenodd;stroke:#000000;stroke-width:0.685;stroke-linecap:butt;stroke-miterlimit:4;stroke-dasharray:none;stroke-opacity:1"
     inkscape:connector-curvature="0" />
  <circle
     r="0.95108259"
     cy="15.515706"
     cx="-7.1461849"
     id="circle4173"
     style="color:#000000;clip-rule:nonzero;display:inline;overflow:visible;visibility:visible;opacity:1;isolation:auto;mix-blend-mode:normal;color-interpolation:sRGB;color-interpolation-filters:linearRGB;solid-color:#000000;solid-opacity:1;fill:#2b2200;fill-opacity:1;fill-rule:nonzero;stroke:#000000;stroke-width:0.685;stroke-linecap:butt;stroke-linejoin:miter;stroke-miterlimit:4;stroke-dasharray:none;stroke-dashoffset:0;stroke-opacity:1;color-rendering:auto;image-rendering:auto;shape-rendering:auto;text-rendering:auto;enable-background:accumulate"
     transform="scale(-1,1)" />
  <path
     sodipodi:nodetypes="ccccccc"
     inkscape:connector-curvature="0"
     id="path4175"
     d="m 18.52293,40.791014 -3.2537,0 -2.31873,1.23417 0.14959,3.47809 -0.33659,0.82278 5.75943,0 z"
     style="opacity:1;fill:#ffcc00;fill-opacity:1;fill-rule:evenodd;stroke:#000000;stroke-width:0.685;stroke-linecap:butt;stroke-miterlimit:4;stroke-dasharray:none;stroke-opacity:1" />
  <path
     sodipodi:nodetypes="ccccc"
     inkscape:connector-curvature="0"
     id="path4177"
     d="m 13.0253,41.165004 -1.34637,1.04717 0.1496,5.49764 1.23416,-2.01954 z"
     style="opacity:1;fill:#ffcc00;fill-opacity:1;fill-rule:evenodd;stroke:#000000;stroke-width:0.685;stroke-linecap:butt;stroke-miterlimit:4;stroke-dasharray:none;stroke-opacity:1" />
  <path
     sodipodi:nodetypes="ccccc"
     inkscape:connector-curvature="0"
     id="path4179"
     d="m 20.01084,18.139374 -1.58285,7.67425 0.8363,0 0.86622,0.23934 z"
     style="opacity:1;fill:#806600;fill-opacity:1;fill-rule:evenodd;stroke:#000000;stroke-width:0.685;stroke-linecap:butt;stroke-miterlimit:4;stroke-dasharray:none;stroke-opacity:1" />
</svg>
