<?xml version="1.0" encoding="UTF-8" standalone="no"?>
<svg
   xmlns:dc="http://purl.org/dc/elements/1.1/"
   xmlns:cc="http://creativecommons.org/ns#"
   xmlns:rdf="http://www.w3.org/1999/02/22-rdf-syntax-ns#"
   xmlns:svg="http://www.w3.org/2000/svg"
   xmlns="http://www.w3.org/2000/svg"
   xmlns:sodipodi="http://sodipodi.sourceforge.net/DTD/sodipodi-0.dtd"
   xmlns:inkscape="http://www.inkscape.org/namespaces/inkscape"
   width="16"
   height="16"
   id="svg2"
   version="1.1"
   inkscape:version="0.91 r13725"
   sodipodi:docname="landing.svg">
  <metadata
     id="metadata17">
    <rdf:RDF>
      <cc:Work
         rdf:about="">
        <dc:format>image/svg+xml</dc:format>
        <dc:type
           rdf:resource="http://purl.org/dc/dcmitype/StillImage" />
        <dc:title></dc:title>
      </cc:Work>
    </rdf:RDF>
  </metadata>
  <sodipodi:namedview
     pagecolor="#ffffff"
     bordercolor="#666666"
     borderopacity="1"
     objecttolerance="10"
     gridtolerance="10"
     guidetolerance="10"
     inkscape:pageopacity="0"
     inkscape:pageshadow="2"
     inkscape:window-width="1920"
     inkscape:window-height="1017"
     id="namedview15"
     showgrid="false"
     inkscape:zoom="14.75"
     inkscape:cx="-14"
     inkscape:cy="10.661208"
     inkscape:window-x="-8"
     inkscape:window-y="-8"
     inkscape:window-maximized="1"
     inkscape:current-layer="svg2" />
  <defs
     id="defs4">
    <linearGradient
       id="1"
       x1="0%"
       y1="0%"
       x2="100%"
       y2="100%">
      <stop
         offset=".3"
         stop-color="#fff"
         id="stop7" />
      <stop
         offset="1"
         stop-color="#ccc"
         id="stop9" />
    </linearGradient>
  </defs>
  <circle
     cx="8"
     cy="8"
     r="7.5"
     style="fill:url(#1);stroke:#788;stroke-width:1"
     id="circle11" />
  <path
     style="fill:#000000"
     d="M 3.233821,9.5479055 C 3.3433054,9.3403708 3.380285,9.3268034 5.7402473,8.6284464 L 6.4235339,8.4262497 6.1458085,8.1990554 C 5.6323871,7.7790472 4.5479562,6.7492687 4.2780093,6.4253879 3.8967321,5.9679341 3.5890899,5.3680962 3.5612431,5.0278426 3.5366005,4.7267272 3.5861856,4.6466107 4.5381564,3.449345 5.0995387,2.7433129 5.3145677,2.6431735 5.6528167,2.9302444 5.9291666,3.1647813 5.9513806,3.3565699 5.801758,4.2161467 5.744831,4.5432046 5.727859,4.86847 5.764058,4.9389589 c 0.036185,0.07049 0.406444,0.398386 0.8227794,0.7286603 L 7.3438101,6.2681178 7.3978523,5.6924877 C 7.4275812,5.3758912 7.4639094,4.8966611 7.4785807,4.627532 7.5180946,3.9025341 7.7617532,3.7255592 8.2070869,4.0983858 8.6006496,4.4278716 8.82328,5.0427097 9.0729515,6.4896414 l 0.2362588,1.3692034 1.1353257,0.9112358 c 1.385427,1.1119723 1.749475,1.5491564 1.888868,2.2683304 0.06109,0.31518 0.05055,0.650788 -0.02752,0.876923 -0.119345,0.345668 -0.141802,0.365673 -0.39792,0.354612 -0.310629,-0.01342 -1.546131,-0.760467 -2.5121054,-1.518953 L 8.7384981,10.234834 6.6055133,10.329375 C 4.3703397,10.428445 3.8558297,10.372711 3.4037362,9.9825619 3.1455134,9.7597193 3.1355335,9.7341896 3.2338025,9.5479051 Z m 1.0210971,0.3551104 c 0.1992735,0.032705 1.3193953,0.018281 2.4891608,-0.032047 l 2.1268433,-0.091501 1.055714,0.7788546 c 1.1151008,0.822664 1.8318968,1.279468 1.9295108,1.229648 0.110671,-0.05651 0.102757,-0.511763 -0.01521,-0.873782 -0.0653,-0.200414 -0.240374,-0.497644 -0.392424,-0.666255 C 11.29753,10.080503 9.9004765,8.9192618 8.3439496,7.6673987 6.7874241,6.4155343 5.4500919,5.3269969 5.3721,5.2484262 5.2661011,5.1416346 5.2590155,4.8791109 5.3440431,4.2085174 5.4066138,3.7151382 5.412071,3.2978406 5.3561858,3.2811892 5.3003151,3.264538 4.9692759,3.634677 4.6205541,4.1037206 L 3.986514,4.9565273 4.3015962,5.5604047 C 4.6588922,6.245188 5.2239001,6.8407376 6.5160115,7.8945227 6.9519494,8.250053 7.3003898,8.566563 7.2903228,8.5978772 7.2757653,8.6431741 5.4594947,9.2097734 4.0523676,9.6079923 3.7217641,9.7015522 3.8099374,9.8299922 4.2548939,9.9030137 Z M 8.3347097,7.0721422 C 8.8266899,7.4560014 8.81849,7.5181418 8.4919194,5.8808894 8.3433424,5.1360058 8.2366165,4.7965166 8.1129779,4.675499 7.952524,4.5184463 7.9358727,4.5736117 7.8671463,5.4899311 7.8266033,6.030524 7.8212613,6.5343674 7.8552943,6.6095832 c 0.034028,0.075216 0.2497629,0.2833675 0.4794274,0.462559 z"
     id="path4202"
     inkscape:connector-curvature="0" />
  <path
     style="fill:#778888;fill-opacity:1;stroke:#778888;stroke-width:0.0306179;stroke-linecap:butt;stroke-miterlimit:4;stroke-dasharray:0.09185371, 0.0306179;stroke-dashoffset:2.79999995;stroke-opacity:1"
     d="M 11.362665,11.511776 C 11.154317,11.385477 10.512544,10.940503 9.9365061,10.522946 L 8.8891606,9.7637489 6.6453829,9.841698 C 4.896451,9.9024588 4.34249,9.9034702 4.1335638,9.8462981 3.973207,9.8024185 3.8878337,9.7506362 3.9210576,9.7174109 3.9516001,9.6868641 4.3593741,9.5499434 4.8272175,9.4131377 5.9213524,9.0931965 7.2061352,8.678233 7.2618288,8.6268008 7.329171,8.5646072 7.2652574,8.4985294 6.5448582,7.8854747 5.1806064,6.7245231 4.6641207,6.1615807 4.2351626,5.3680282 L 4.0173779,4.9651365 4.5230137,4.2964017 C 4.8011135,3.9285975 5.1045215,3.5587764 5.1972547,3.4745771 L 5.3658615,3.3214877 5.3186192,4.086935 c -0.063057,1.0217109 -0.054714,1.1103972 0.1180704,1.2553341 0.080313,0.06736 1.2029508,0.9807261 2.4947735,2.0297039 3.6475789,2.961884 3.7058159,3.016152 3.8886669,3.623722 0.108084,0.359131 0.109163,0.745716 0.0021,0.745716 -0.04442,0 -0.25122,-0.103339 -0.45957,-0.229635 l -4e-6,0 z"
     id="path4232"
     inkscape:connector-curvature="0" />
  <path
     style="fill:#778888;fill-opacity:1;stroke:#778888;stroke-width:0.0306179;stroke-linecap:butt;stroke-miterlimit:4;stroke-dasharray:0.09185371, 0.0306179;stroke-dashoffset:2.79999995;stroke-opacity:1"
     d="M 8.2289295,6.9198972 7.8444538,6.5719671 7.8863675,5.7252328 C 7.9328099,4.7870294 7.9765808,4.5735193 8.0935881,4.7145055 8.2169867,4.8631884 8.3351554,5.2672521 8.4946365,6.0858261 8.6994285,7.1369522 8.7095327,7.2084192 8.6578575,7.2403557 8.6334149,7.2554656 8.4403942,7.1112586 8.2289323,6.9198972 Z"
     id="path4234"
     inkscape:connector-curvature="0" />
</svg>
