<?xml version="1.0" encoding="UTF-8" standalone="no"?>
<!-- Generated by IcoMoon.io -->

<svg
   xmlns:dc="http://purl.org/dc/elements/1.1/"
   xmlns:cc="http://creativecommons.org/ns#"
   xmlns:rdf="http://www.w3.org/1999/02/22-rdf-syntax-ns#"
   xmlns:svg="http://www.w3.org/2000/svg"
   xmlns="http://www.w3.org/2000/svg"
   xmlns:sodipodi="http://sodipodi.sourceforge.net/DTD/sodipodi-0.dtd"
   xmlns:inkscape="http://www.inkscape.org/namespaces/inkscape"
   version="1.1"
   width="512"
   height="512"
   viewBox="0 0 512 512"
   id="svg2"
   inkscape:version="0.91 r13725"
   sodipodi:docname="target1.svg">
  <metadata
     id="metadata20">
    <rdf:RDF>
      <cc:Work
         rdf:about="">
        <dc:format>image/svg+xml</dc:format>
        <dc:type
           rdf:resource="http://purl.org/dc/dcmitype/StillImage" />
      </cc:Work>
    </rdf:RDF>
  </metadata>
  <defs
     id="defs18" />
  <sodipodi:namedview
     pagecolor="#ffffff"
     bordercolor="#666666"
     borderopacity="1"
     objecttolerance="10"
     gridtolerance="10"
     guidetolerance="10"
     inkscape:pageopacity="0"
     inkscape:pageshadow="2"
     inkscape:window-width="1920"
     inkscape:window-height="1017"
     id="namedview16"
     showgrid="false"
     inkscape:zoom="0.4609375"
     inkscape:cx="256"
     inkscape:cy="256"
     inkscape:window-x="-8"
     inkscape:window-y="-8"
     inkscape:window-maximized="1"
     inkscape:current-layer="svg2" />
  <g
     id="g4" />
  <path
     d="m 346.9659,165.0346 c 50.16357,50.16357 50.17135,131.7743 0,181.94565 -50.16357,50.16357 -131.78137,50.16427 -181.94565,0 -50.14235,-50.14236 -50.14235,-131.77501 0.0141,-181.93151 50.17842,-50.17841 131.78208,-50.16357 181.93151,-0.0141 z M 144.95539,144.96974 c -61.205748,61.20575 -61.235447,160.82437 0.008,222.06759 61.24322,61.24323 160.86891,61.2206 222.07466,0.0149 61.2206,-61.2206 61.24959,-160.86821 0.0141,-222.10365 C 305.80946,83.706008 206.1767,83.749849 144.9561,144.97045 Z"
     id="path6"
     inkscape:connector-curvature="0"
     style="fill:#fd0a1a;fill-opacity:1" />
  <path
     d="M 195.32793,175.25762 92.314826,72.244514 72.236529,92.322811 175.24464,195.33092 c 2.36945,-3.9733 5.18962,-7.81548 8.7301,-11.35597 3.54049,-3.54048 7.3749,-6.35288 11.35369,-8.71683 z"
     id="path8"
     inkscape:connector-curvature="0"
     style="fill:#fd0a1a;fill-opacity:1" />
  <path
     d="m 321.26698,341.3674 98.40364,98.40364 20.07829,-20.0783 -98.40363,-98.40363 c -2.40481,3.93794 -5.24236,7.76133 -8.78355,11.30253 -3.54119,3.54119 -7.35752,6.37166 -11.29475,8.77576 z"
     id="path10"
     inkscape:connector-curvature="0"
     style="fill:#fd0a1a;fill-opacity:1" />
  <path
     d="M 175.24306,316.68692 68.204606,423.72537 88.268761,443.78953 195.30721,336.75108 c -3.9659,-2.333 -7.82795,-5.16161 -11.38328,-8.71694 -3.51856,-3.51856 -6.35494,-7.38838 -8.68087,-11.34722 z"
     id="path12"
     inkscape:connector-curvature="0"
     style="fill:#fd0a1a;fill-opacity:1" />
  <path
     d="M 423.72587,68.204106 313.60444,178.32554 c 3.98228,2.30248 7.85915,5.11626 11.39256,8.64967 3.54826,3.54826 6.3684,7.4315 8.67867,11.42155 L 443.7971,88.275332 423.72517,68.203399 Z"
     id="path14"
     inkscape:connector-curvature="0"
     style="fill:#fd0a1a;fill-opacity:1" />
</svg>
