<?xml version="1.0" encoding="UTF-8" standalone="no"?>
<svg
   xmlns:osb="http://www.openswatchbook.org/uri/2009/osb"
   xmlns:dc="http://purl.org/dc/elements/1.1/"
   xmlns:cc="http://creativecommons.org/ns#"
   xmlns:rdf="http://www.w3.org/1999/02/22-rdf-syntax-ns#"
   xmlns:svg="http://www.w3.org/2000/svg"
   xmlns="http://www.w3.org/2000/svg"
   xmlns:sodipodi="http://sodipodi.sourceforge.net/DTD/sodipodi-0.dtd"
   xmlns:inkscape="http://www.inkscape.org/namespaces/inkscape"
   width="16"
   height="16"
   id="svg2"
   version="1.1"
   inkscape:version="0.91 r13725"
   sodipodi:docname="target2.svg">
  <metadata
     id="metadata17">
    <rdf:RDF>
      <cc:Work
         rdf:about="">
        <dc:format>image/svg+xml</dc:format>
        <dc:type
           rdf:resource="http://purl.org/dc/dcmitype/StillImage" />
        <dc:title></dc:title>
      </cc:Work>
    </rdf:RDF>
  </metadata>
  <sodipodi:namedview
     pagecolor="#ffffff"
     bordercolor="#666666"
     borderopacity="1"
     objecttolerance="10"
     gridtolerance="10"
     guidetolerance="10"
     inkscape:pageopacity="0"
     inkscape:pageshadow="2"
     inkscape:window-width="1920"
     inkscape:window-height="1007"
     id="namedview15"
     showgrid="false"
     inkscape:zoom="1.84375"
     inkscape:cx="27.931464"
     inkscape:cy="-27.086758"
     inkscape:window-x="0"
     inkscape:window-y="25"
     inkscape:window-maximized="1"
     inkscape:current-layer="svg2" />
  <defs
     id="defs4">
    <linearGradient
       id="linearGradient5788"
       osb:paint="solid">
      <stop
         style="stop-color:#000000;stop-opacity:1;"
         offset="0"
         id="stop5790" />
    </linearGradient>
    <linearGradient
       id="1"
       x1="8.8817842e-016"
       y1="8.8817842e-016"
       x2="16"
       y2="16"
       gradientUnits="userSpaceOnUse">
      <stop
         offset="0.3381356"
         stop-color="#fff"
         id="stop7" />
      <stop
         offset="1"
         stop-color="#ccc"
         id="stop9" />
    </linearGradient>
  </defs>
  <circle
     cx="8"
     cy="8"
     r="7.5"
     style="fill:url(#1);stroke:#788;stroke-width:1"
     id="circle11" />
  <g
     id="g4150"
     transform="matrix(0.02696422,0,0,0.02696422,1.0149027,1.0692726)">
    <g
       id="g4" />
    <path
       style="fill:#fd0a1a;fill-opacity:1"
       inkscape:connector-curvature="0"
       id="path6"
       d="m 346.9659,165.0346 c 50.16357,50.16357 50.17135,131.7743 0,181.94565 -50.16357,50.16357 -131.78137,50.16427 -181.94565,0 -50.14235,-50.14236 -50.14235,-131.77501 0.0141,-181.93151 50.17842,-50.17841 131.78208,-50.16357 181.93151,-0.0141 z M 144.95539,144.96974 c -61.205748,61.20575 -61.235447,160.82437 0.008,222.06759 61.24322,61.24323 160.86891,61.2206 222.07466,0.0149 61.2206,-61.2206 61.24959,-160.86821 0.0141,-222.10365 C 305.80946,83.706008 206.1767,83.749849 144.9561,144.97045 Z" />
    <path
       style="fill:#fd0a1a;fill-opacity:1"
       inkscape:connector-curvature="0"
       id="path8"
       d="M 195.32793,175.25762 92.314826,72.244514 72.236529,92.322811 175.24464,195.33092 c 2.36945,-3.9733 5.18962,-7.81548 8.7301,-11.35597 3.54049,-3.54048 7.3749,-6.35288 11.35369,-8.71683 z" />
    <path
       style="fill:#fd0a1a;fill-opacity:1"
       inkscape:connector-curvature="0"
       id="path10"
       d="m 321.26698,341.3674 98.40364,98.40364 20.07829,-20.0783 -98.40363,-98.40363 c -2.40481,3.93794 -5.24236,7.76133 -8.78355,11.30253 -3.54119,3.54119 -7.35752,6.37166 -11.29475,8.77576 z" />
    <path
       style="fill:#fd0a1a;fill-opacity:1"
       inkscape:connector-curvature="0"
       id="path12"
       d="M 175.24306,316.68692 68.204606,423.72537 88.268761,443.78953 195.30721,336.75108 c -3.9659,-2.333 -7.82795,-5.16161 -11.38328,-8.71694 -3.51856,-3.51856 -6.35494,-7.38838 -8.68087,-11.34722 z" />
    <path
       style="fill:#fd0a1a;fill-opacity:1"
       inkscape:connector-curvature="0"
       id="path14"
       d="M 423.72587,68.204106 313.60444,178.32554 c 3.98228,2.30248 7.85915,5.11626 11.39256,8.64967 3.54826,3.54826 6.3684,7.4315 8.67867,11.42155 L 443.7971,88.275332 423.72517,68.203399 Z" />
  </g>
</svg>
