<?xml version="1.0" encoding="UTF-8" standalone="no"?>
<!-- Created with Inkscape (http://www.inkscape.org/) -->

<svg
   xmlns:dc="http://purl.org/dc/elements/1.1/"
   xmlns:cc="http://creativecommons.org/ns#"
   xmlns:rdf="http://www.w3.org/1999/02/22-rdf-syntax-ns#"
   xmlns:svg="http://www.w3.org/2000/svg"
   xmlns="http://www.w3.org/2000/svg"
   xmlns:sodipodi="http://sodipodi.sourceforge.net/DTD/sodipodi-0.dtd"
   xmlns:inkscape="http://www.inkscape.org/namespaces/inkscape"
   width="16"
   height="16"
   viewBox="0 0 4.5155558 4.5155556"
   version="1.1"
   id="svg8"
   inkscape:version="0.91 r13725"
   sodipodi:docname="missile.svg">
  <defs
     id="defs2">
    <linearGradient
       gradientTransform="matrix(0.28222238,0,0,0.28222209,-164.85583,414.63975)"
       id="1"
       x1="8.8817842e-016"
       y1="8.8817842e-016"
       x2="16"
       y2="16"
       gradientUnits="userSpaceOnUse">
      <stop
         offset="0.3381356"
         stop-color="#fff"
         id="stop7" />
      <stop
         offset="1"
         stop-color="#ccc"
         id="stop9" />
    </linearGradient>
  </defs>
  <sodipodi:namedview
     id="base"
     pagecolor="#ffffff"
     bordercolor="#666666"
     borderopacity="1.0"
     inkscape:pageopacity="0.0"
     inkscape:pageshadow="2"
     inkscape:zoom="28.123336"
     inkscape:cx="12.770438"
     inkscape:cy="3.9667106"
     inkscape:document-units="mm"
     inkscape:current-layer="layer2"
     showgrid="false"
     fit-margin-top="0"
     fit-margin-left="0"
     fit-margin-right="0"
     fit-margin-bottom="0"
     inkscape:snap-global="false"
     inkscape:window-width="1920"
     inkscape:window-height="1017"
     inkscape:window-x="-8"
     inkscape:window-y="-8"
     inkscape:window-maximized="1"
     units="px" />
  <metadata
     id="metadata5">
    <rdf:RDF>
      <cc:Work
         rdf:about="">
        <dc:format>image/svg+xml</dc:format>
        <dc:type
           rdf:resource="http://purl.org/dc/dcmitype/StillImage" />
        <dc:title></dc:title>
      </cc:Work>
    </rdf:RDF>
  </metadata>
  <g
     inkscape:groupmode="layer"
     id="layer2"
     inkscape:label="Layer 2"
     style="opacity:1"
     transform="translate(164.85583,-414.63975)">
    <ellipse
       cx="-162.59805"
       cy="416.89752"
       style="fill:url(#1);stroke:#778888;stroke-width:0.28222224"
       id="circle11"
       rx="2.1166668"
       ry="2.1166666" />
    <path
       style="fill:#ffffff;stroke:#778888;stroke-width:0.05760896;stroke-miterlimit:4;stroke-dasharray:none;stroke-opacity:1"
       d="m -162.82078,415.20722 c 0,0 0.0339,-0.0965 0.0889,-0.13478 0.021,-0.0146 0.0503,-0.0409 0.0892,-0.0533 0.0242,-0.008 0.083,-0.0109 0.083,-0.0109 0,0 0.0648,0.003 0.0905,0.0115 0.0366,0.0127 0.0658,0.0453 0.0766,0.0553 0.069,0.064 0.0889,0.13093 0.0889,0.13093 l 0.0137,0.52627 -0.0338,1.17637 -0.018,0.85132 0.0243,0.83521 c 0,0 -0.23538,0.0224 -0.31082,0.0175 -0.0754,-0.005 -0.14183,-0.047 -0.14183,-0.047 l -0.0437,-1.4092 -0.01,-0.67264 0.0115,-0.38789 -0.01,-0.51684 z"
       id="rect22"
       inkscape:connector-curvature="0"
       sodipodi:nodetypes="csacascccccscccccc" />
    <path
       style="fill:#778888;fill-opacity:1;stroke-width:0.30254459"
       d="m -162.60725,415.01023 c 0,0 0.036,-0.006 0.0528,-0.006 0.025,10e-5 0.054,0.005 0.054,0.005 0.056,0.009 0.12476,0.0621 0.11283,0.0688 -0.0403,0.0205 -0.17079,0.0215 -0.17079,0.0215 0,0 -0.12697,-6.3e-4 -0.1643,-0.0223 -0.0147,-0.0223 0.0709,-0.061 0.11546,-0.0671 z"
       id="rect25"
       inkscape:connector-curvature="0"
       sodipodi:nodetypes="ssscccs" />
    <path
       sodipodi:nodetypes="ccccc"
       inkscape:connector-curvature="0"
       id="path32"
       d="m -163.00298,416.23495 0.1984,-0.14725 0,0.51288 -0.19677,-0.0844 z"
       style="fill:#778888;fill-opacity:1;stroke-width:0.37219748" />
    <path
       sodipodi:nodetypes="ccccc"
       inkscape:connector-curvature="0"
       id="path36"
       d="m -162.13133,416.15962 -0.17238,-0.0967 0,0.47234 0.161,-0.10087 z"
       style="fill:#778888;fill-opacity:1;stroke-width:0.357187" />
    <path
       style="fill:#778888;fill-opacity:1;stroke-width:0.27116764"
       d="m -162.36713,416.3014 -0.0911,-0.17068 0,0.50626 0.0849,-0.0502 z"
       id="path38"
       inkscape:connector-curvature="0"
       sodipodi:nodetypes="ccccc" />
    <path
       style="fill:#778888;fill-opacity:1;stroke-width:0.37097302"
       d="m -162.52114,417.09431 0.1122,-0.008 0,0.32593 -0.1122,0.004 z"
       id="rect40"
       inkscape:connector-curvature="0"
       sodipodi:nodetypes="ccccc" />
    <path
       style="fill:#778888;fill-opacity:1;stroke-width:0.37097302"
       d="m -162.95304,417.97005 0.17732,-0.0814 0.0123,0.67648 -0.463,0.0814 -0.0172,-0.21046 z"
       id="rect57"
       inkscape:connector-curvature="0"
       sodipodi:nodetypes="cccccc" />
    <path
       sodipodi:nodetypes="cccccc"
       inkscape:connector-curvature="0"
       id="path60"
       d="m -162.19736,417.84227 -0.14531,-0.0238 -0.0123,0.67649 0.41375,-0.0777 0.0197,-0.20044 z"
       style="fill:#778888;fill-opacity:1;stroke-width:0.37097302" />
    <path
       style="fill:#778888;fill-opacity:1;stroke-width:0.37268654"
       d="m -162.40177,418.05671 -0.0837,-0.128 -0.0123,0.68275 0.20687,0.19596 0.002,-0.2023 z"
       id="path62"
       inkscape:connector-curvature="0"
       sodipodi:nodetypes="cccccc" />
  </g>
</svg>
