<?xml version="1.0" encoding="UTF-8" standalone="no"?>
<svg
   xmlns:dc="http://purl.org/dc/elements/1.1/"
   xmlns:cc="http://creativecommons.org/ns#"
   xmlns:rdf="http://www.w3.org/1999/02/22-rdf-syntax-ns#"
   xmlns:svg="http://www.w3.org/2000/svg"
   xmlns="http://www.w3.org/2000/svg"
   xmlns:sodipodi="http://sodipodi.sourceforge.net/DTD/sodipodi-0.dtd"
   xmlns:inkscape="http://www.inkscape.org/namespaces/inkscape"
   width="16"
   height="16"
   id="svg2"
   version="1.1"
   inkscape:version="0.91 r13725"
   sodipodi:docname="target.svg">
  <metadata
     id="metadata17">
    <rdf:RDF>
      <cc:Work
         rdf:about="">
        <dc:format>image/svg+xml</dc:format>
        <dc:type
           rdf:resource="http://purl.org/dc/dcmitype/StillImage" />
        <dc:title />
      </cc:Work>
    </rdf:RDF>
  </metadata>
  <sodipodi:namedview
     pagecolor="#ffffff"
     bordercolor="#666666"
     borderopacity="1"
     objecttolerance="10"
     gridtolerance="10"
     guidetolerance="10"
     inkscape:pageopacity="0"
     inkscape:pageshadow="2"
     inkscape:window-width="1920"
     inkscape:window-height="1017"
     id="namedview15"
     showgrid="false"
     inkscape:zoom="32"
     inkscape:cx="4.99738"
     inkscape:cy="9.4232614"
     inkscape:window-x="-8"
     inkscape:window-y="-8"
     inkscape:window-maximized="1"
     inkscape:current-layer="svg2"
     showguides="true"
     inkscape:guide-bbox="true">
    <sodipodi:guide
       position="8,8"
       orientation="0,1"
       id="guide4144"
       inkscape:label=""
       inkscape:color="rgb(0,0,255)" />
  </sodipodi:namedview>
  <defs
     id="defs4">
    <linearGradient
       id="1"
       x1="8.8817842e-016"
       y1="8.8817842e-016"
       x2="16"
       y2="16"
       gradientUnits="userSpaceOnUse">
      <stop
         offset="0.3381356"
         stop-color="#fff"
         id="stop7" />
      <stop
         offset="1"
         stop-color="#ccc"
         id="stop9" />
    </linearGradient>
  </defs>
  <path
     id="path4193"
     style="opacity:1;fill:#000000;fill-opacity:0.23529412;fill-rule:evenodd;stroke:#ff0000;stroke-width:1.00097907;stroke-linecap:butt;stroke-linejoin:round;stroke-miterlimit:4;stroke-dasharray:none;stroke-dashoffset:2.79999995;stroke-opacity:1"
     d="M 11.240892,8 A 3.225267,3.2185392 0 0 1 8.015625,11.218539 3.225267,3.2185392 0 0 1 4.790358,8 3.225267,3.2185392 0 0 1 8.015625,4.7814608 3.225267,3.2185392 0 0 1 11.240892,8 Z M 15.50617,8 A 7.4905455,7.4749205 0 0 1 8.015625,15.47492 7.4905455,7.4749205 0 0 1 0.52507955,8 7.4905455,7.4749205 0 0 1 8.015625,0.52507955 7.4905455,7.4749205 0 0 1 15.50617,8 Z"
     inkscape:connector-curvature="0" />
  <path
     d="m 8.338708,6.745387 0,-4.745388 -0.677708,0 0,4.7451573 C 7.768047,6.708251 7.880488,6.68463 7.999985,6.68463 c 0.119506,0 0.231683,0.023514 0.338723,0.060713 z"
     id="path8"
     inkscape:connector-curvature="0"
     style="fill:#ff0000;fill-opacity:1" />
  <path
     d="m 7.660768,9.288815 0,4.711185 0.677707,0 0,-4.711185 c -0.107047,0.036692 -0.219465,0.060299 -0.338985,0.060299 -0.119527,0 -0.231705,-0.023607 -0.338722,-0.060299 z"
     id="path10"
     inkscape:connector-curvature="0"
     style="fill:#ff0000;fill-opacity:1" />
  <path
     d="m 6.925393,7.653402 -4.925393,0 0,0.692977 4.925393,0 C 6.8878618,8.237611 6.8640453,8.122062 6.8640453,7.999264 c 0,-0.121522 0.023816,-0.23733 0.061348,-0.345862 z"
     id="path12"
     inkscape:connector-curvature="0"
     style="fill:#ff0000;fill-opacity:1" />
  <path
     d="m 14,7.653402 -4.966954,0 c 0.037884,0.108528 0.06183,0.22407 0.06183,0.34611 0,0.12255 -0.023946,0.238312 -0.06183,0.347115 l 4.966954,0 0,-0.693255 z"
     id="path14"
     inkscape:connector-curvature="0"
     style="fill:#ff0000;fill-opacity:1" />
  <circle
     style="opacity:1;fill:none;fill-opacity:1;fill-rule:evenodd;stroke:#ff0000;stroke-width:1;stroke-linecap:butt;stroke-linejoin:round;stroke-miterlimit:4;stroke-dasharray:none;stroke-dashoffset:2.79999995;stroke-opacity:1"
     id="path4210"
     cx="8.03125"
     cy="8"
     r="3.25" />
</svg>
